<svg width="830" height="710" viewBox="0 0 830 710" fill="none" xmlns="http://www.w3.org/2000/svg">
<path opacity="0.01" fill-rule="evenodd" clip-rule="evenodd" d="M272.531 350.04C261.171 419.483 203.643 500.438 248.448 554.594C291.907 607.122 379.48 553.133 446.907 560.805C509.56 567.935 567.331 615.629 627.778 597.759C692.318 578.68 745.065 525.828 773.2 464.346C800.786 404.065 799.143 332.903 777.759 270.02C758.433 213.19 705.729 179.253 662.248 138.075C620.396 98.4392 586.556 35.9087 529.164 34.5912C471.668 33.2713 435.88 95.0527 391.573 131.861C358.203 159.584 323.575 184.513 302.744 222.693C281.357 261.889 279.753 305.891 272.531 350.04Z" stroke="url(#paint0_linear_106_147)" stroke-width="3"/>
<path opacity="0.02" fill-rule="evenodd" clip-rule="evenodd" d="M269.499 348.09C256.97 417.092 198.232 496.764 241.94 551.509C284.335 604.609 372.545 552.332 439.606 561.15C501.919 569.344 558.66 617.876 619.21 601.12C683.859 583.229 737.344 531.479 766.452 470.701C794.991 411.111 794.592 340.169 774.376 277.134C756.106 220.166 704.174 185.431 661.56 143.641C620.542 103.417 587.907 40.5162 530.736 38.2054C473.461 35.8904 436.722 96.8336 391.927 132.743C358.19 159.788 323.247 184.029 301.824 221.713C279.829 260.4 277.465 304.22 269.499 348.09Z" stroke="url(#paint1_linear_106_147)" stroke-width="3"/>
<path opacity="0.03" fill-rule="evenodd" clip-rule="evenodd" d="M266.534 346.098C252.847 414.64 192.926 493.012 235.531 548.325C276.855 601.976 365.669 551.415 432.345 561.369C494.299 570.617 550 619.966 610.632 604.321C675.368 587.618 729.568 536.979 759.633 476.92C789.111 418.035 789.948 347.335 770.898 284.169C753.683 227.084 702.535 191.568 660.796 149.183C620.619 108.386 589.191 45.1391 532.259 41.8424C475.222 38.5396 437.55 98.6302 392.285 133.635C358.194 159.999 322.951 183.547 300.946 220.726C278.354 258.895 275.235 302.52 266.534 346.098Z" stroke="url(#paint2_linear_106_147)" stroke-width="3"/>
<path opacity="0.04" fill-rule="evenodd" clip-rule="evenodd" d="M263.636 344.065C248.804 412.128 187.728 489.182 229.222 545.042C269.469 599.223 358.855 550.384 425.126 561.462C486.704 571.756 541.352 621.899 602.046 607.364C666.848 591.845 721.741 542.326 752.747 483.002C783.147 424.836 785.211 354.4 767.327 291.125C751.164 233.941 700.812 197.661 659.955 154.7C620.628 113.347 590.41 49.7763 533.732 45.5011C476.951 41.2181 438.364 100.442 392.648 134.537C358.216 160.215 322.685 183.067 300.11 219.733C276.932 257.375 273.065 300.793 263.636 344.065Z" stroke="url(#paint3_linear_106_147)" stroke-width="3"/>
<path opacity="0.05" fill-rule="evenodd" clip-rule="evenodd" d="M260.806 341.994C244.841 409.559 182.637 485.279 223.015 541.663C262.179 596.352 352.103 549.241 417.951 561.432C479.135 572.76 532.721 623.677 593.456 610.248C658.303 595.911 713.866 547.522 745.796 488.946C777.102 431.514 780.384 361.362 763.663 298C748.552 240.736 699.006 203.708 659.039 160.189C620.569 118.299 591.562 54.4264 535.156 49.1807C478.647 43.9255 439.164 102.27 393.013 135.449C358.255 160.438 322.451 182.591 299.316 218.735C275.564 255.842 270.955 299.038 260.806 341.994Z" stroke="url(#paint4_linear_106_147)" stroke-width="3"/>
<path opacity="0.06" fill-rule="evenodd" clip-rule="evenodd" d="M258.044 339.886C240.961 406.934 177.656 481.304 216.912 538.19C254.988 593.367 345.418 547.986 410.823 561.28C471.597 573.631 524.109 625.3 584.866 612.975C649.735 599.816 705.946 552.564 738.784 494.751C770.979 438.067 775.471 368.221 759.91 304.792C745.848 247.469 697.12 209.71 658.049 165.65C620.442 123.239 592.648 59.0884 536.53 52.8804C480.31 46.6611 439.95 104.112 393.384 136.371C358.312 160.667 322.247 182.12 298.564 217.733C274.25 254.295 268.906 297.259 258.044 339.886Z" stroke="url(#paint5_linear_106_147)" stroke-width="3"/>
<path opacity="0.07" fill-rule="evenodd" clip-rule="evenodd" d="M255.353 337.742C237.162 404.255 172.786 477.26 210.915 534.626C247.897 590.269 338.799 546.622 403.744 561.006C464.09 574.371 515.52 626.768 576.278 615.544C641.148 603.56 697.985 557.454 731.713 500.417C764.782 444.495 770.472 374.975 756.07 311.5C743.054 254.136 695.153 215.665 656.987 171.081C620.249 128.167 593.668 63.761 537.855 56.5992C481.94 49.4242 440.722 105.969 393.758 137.304C358.387 160.904 322.075 181.653 297.855 216.728C272.99 252.737 266.918 295.455 255.353 337.742Z" stroke="url(#paint6_linear_106_147)" stroke-width="3"/>
<path opacity="0.08" fill-rule="evenodd" clip-rule="evenodd" d="M252.731 335.564C233.448 401.523 168.028 473.148 205.024 530.974C240.909 587.061 332.251 545.151 396.717 560.612C456.618 574.979 506.956 628.085 567.695 617.957C632.546 607.144 689.985 562.19 724.586 505.944C758.512 450.796 765.392 381.622 752.144 318.124C740.172 260.738 693.109 221.57 655.852 176.482C619.99 133.082 594.623 68.4432 539.131 60.3362C483.538 52.2145 441.481 107.841 394.137 138.247C358.479 161.148 321.934 181.191 297.19 215.72C271.786 251.169 264.991 293.629 252.731 335.564Z" stroke="url(#paint7_linear_106_147)" stroke-width="3"/>
<path opacity="0.09" fill-rule="evenodd" clip-rule="evenodd" d="M250.18 333.353C229.818 398.741 163.383 468.972 199.243 527.234C234.025 583.745 325.774 543.573 389.744 560.101C449.184 575.458 498.42 629.249 559.121 620.214C623.932 610.567 681.949 566.774 717.407 511.33C752.172 456.969 760.231 388.163 748.135 324.661C737.203 267.272 690.988 227.426 654.646 181.851C619.666 137.982 595.512 73.1337 540.357 64.0906C485.101 55.031 442.225 109.727 394.519 139.201C358.589 161.4 321.824 180.736 296.567 214.711C270.635 249.591 263.126 291.781 250.18 333.353Z" stroke="url(#paint8_linear_106_147)" stroke-width="3"/>
<path opacity="0.1" fill-rule="evenodd" clip-rule="evenodd" d="M247.868 331.032C226.445 395.853 159.042 464.7 193.753 523.396C227.42 580.329 319.518 541.884 382.957 559.471C441.904 575.812 490.017 630.284 550.645 622.335C615.377 613.847 673.935 571.205 710.222 516.559C745.8 462.98 755.025 394.538 744.079 331.032C734.187 273.64 688.84 233.119 653.429 187.06C619.344 142.726 596.41 77.6678 541.623 67.6946C486.734 57.7031 443.07 111.475 395.033 140.023C358.854 161.525 321.893 180.158 296.14 213.583C269.701 247.899 261.487 289.821 247.868 331.032Z" stroke="url(#paint9_linear_106_147)" stroke-width="3"/>
<path opacity="0.11" fill-rule="evenodd" clip-rule="evenodd" d="M245.294 328.839C222.815 393.032 154.436 460.436 188.012 519.505C220.579 576.799 313.043 540.108 375.968 558.729C434.437 576.031 481.445 631.127 542.012 624.263C606.678 616.935 665.786 575.48 702.904 521.68C739.297 468.93 749.681 400.918 739.875 337.472C731.013 280.133 686.52 238.983 652.026 192.489C618.824 147.736 597.097 82.5352 542.662 71.6481C488.128 60.741 443.672 113.542 395.297 141.142C358.862 161.929 321.699 179.847 295.45 212.692C268.501 246.412 259.585 288.027 245.294 328.839Z" stroke="url(#paint10_linear_106_147)" stroke-width="3"/>
<path opacity="0.12" fill-rule="evenodd" clip-rule="evenodd" d="M242.958 326.539C219.443 390.109 150.136 456.08 182.565 515.52C214.02 573.174 306.792 538.223 369.169 557.871C427.129 576.128 473.012 631.842 533.482 626.057C598.046 619.88 657.663 579.603 695.585 526.642C732.765 474.717 744.296 407.131 735.628 343.743C727.795 286.457 684.175 244.682 650.613 197.756C618.308 152.587 597.792 87.2441 543.741 75.4494C489.59 63.6331 444.375 115.47 395.692 142.129C359.025 162.207 321.683 179.414 294.956 211.684C267.517 244.814 257.909 286.123 242.958 326.539Z" stroke="url(#paint11_linear_106_147)" stroke-width="3"/>
<path opacity="0.13" fill-rule="evenodd" clip-rule="evenodd" d="M240.697 324.212C216.161 387.143 145.953 451.669 177.233 511.458C207.573 569.45 300.621 536.24 362.434 556.902C419.869 576.101 464.619 632.411 524.974 627.698C589.414 622.667 649.519 583.573 688.226 531.464C726.177 480.373 738.841 413.233 731.307 349.924C724.498 292.71 681.761 250.327 649.135 202.987C617.73 157.42 598.424 91.9569 544.771 79.2648C491.02 66.5494 445.064 117.412 396.091 143.128C359.207 162.495 321.699 178.99 294.506 210.678C266.589 243.211 256.297 284.203 240.697 324.212Z" stroke="url(#paint12_linear_106_147)" stroke-width="3"/>
<path opacity="0.14" fill-rule="evenodd" clip-rule="evenodd" d="M238.509 321.861C212.966 384.136 141.889 447.206 172.017 507.321C201.239 565.63 294.532 534.159 355.763 555.822C412.659 575.95 456.269 632.834 516.489 629.188C580.786 625.296 641.355 587.39 680.83 536.144C719.533 485.899 733.319 419.223 726.913 356.013C721.123 298.888 679.276 255.916 647.59 208.181C617.091 162.234 598.992 96.6723 545.752 83.0931C492.415 69.4889 445.74 119.367 396.495 144.137C359.406 162.793 321.746 178.575 294.1 209.675C265.717 241.604 254.749 282.268 238.509 321.861Z" stroke="url(#paint13_linear_106_147)" stroke-width="3"/>
<path opacity="0.15" fill-rule="evenodd" clip-rule="evenodd" d="M236.395 319.486C209.862 381.09 137.943 442.693 166.917 503.113C195.021 561.718 288.525 531.984 349.159 554.633C405.5 575.678 447.964 633.112 508.032 630.528C572.165 627.768 633.175 591.054 673.399 540.681C712.836 491.293 727.732 425.1 722.448 362.01C717.672 304.992 676.723 261.449 645.981 213.337C616.391 167.026 599.497 101.39 546.684 86.9337C493.776 72.4514 446.401 121.336 396.903 145.159C359.624 163.101 321.824 178.171 293.736 208.676C264.901 239.995 253.265 280.32 236.395 319.486Z" stroke="url(#paint14_linear_106_147)" stroke-width="3"/>
<path opacity="0.16" fill-rule="evenodd" clip-rule="evenodd" d="M234.357 317.089C206.847 378.006 134.117 438.132 161.937 498.836C188.92 557.715 282.603 529.717 342.625 553.337C398.397 575.285 439.709 633.248 499.604 631.718C563.554 630.084 624.983 594.566 665.936 545.077C706.09 496.556 722.083 430.864 717.915 367.913C714.148 311.021 674.104 266.925 644.31 218.454C615.631 171.798 599.939 106.108 547.569 90.7859C495.103 75.4362 447.049 123.317 397.316 146.192C359.859 163.421 321.934 177.777 293.417 207.682C264.141 238.385 251.846 278.36 234.357 317.089Z" stroke="url(#paint15_linear_106_147)" stroke-width="3"/>
<path opacity="0.17" fill-rule="evenodd" clip-rule="evenodd" d="M232.392 314.671C203.924 374.886 130.412 433.527 157.075 494.491C182.937 553.623 276.768 527.358 336.161 551.936C391.349 574.773 431.504 633.243 491.209 632.76C554.955 632.245 616.779 597.925 658.445 549.331C699.297 501.686 716.374 436.514 713.316 373.721C710.552 316.973 671.419 272.342 642.575 223.531C614.811 176.548 600.319 110.825 548.405 94.6487C496.395 78.4425 447.684 125.312 397.732 147.238C360.112 163.751 322.074 177.395 293.141 206.694C263.437 236.775 250.492 276.389 232.392 314.671Z" stroke="url(#paint16_linear_106_147)" stroke-width="3"/>
<path opacity="0.18" fill-rule="evenodd" clip-rule="evenodd" d="M230.504 312.236C201.092 371.733 126.828 428.879 152.334 490.082C177.074 549.446 271.02 524.91 329.771 550.431C384.361 574.145 423.354 633.097 482.85 633.655C546.374 634.251 608.57 601.133 650.929 553.443C692.461 506.685 710.609 442.05 708.653 379.435C706.885 322.848 668.671 277.7 640.78 228.567C613.934 181.274 600.637 115.542 549.193 98.5214C497.654 81.4701 448.305 127.319 398.154 148.295C360.383 164.093 322.246 177.025 292.909 205.713C262.79 235.166 249.203 274.409 230.504 312.236Z" stroke="url(#paint17_linear_106_147)" stroke-width="3"/>
<path opacity="0.19" fill-rule="evenodd" clip-rule="evenodd" d="M228.69 309.783C198.351 368.548 123.365 424.191 147.714 485.612C171.332 545.187 265.362 522.376 323.455 548.825C377.434 573.4 415.259 632.813 474.529 634.404C537.811 636.103 600.355 604.19 643.389 557.413C685.582 511.55 704.788 447.47 703.928 385.053C703.15 328.644 665.86 282.999 638.925 233.562C612.999 185.976 600.893 120.255 549.932 102.403C498.878 84.5182 448.911 129.339 398.579 149.365C360.671 164.448 322.448 176.668 292.719 204.74C262.198 233.559 247.979 272.421 228.69 309.783Z" stroke="url(#paint18_linear_106_147)" stroke-width="3"/>
<path opacity="0.2" fill-rule="evenodd" clip-rule="evenodd" d="M226.953 307.314C195.704 365.334 120.024 419.465 143.217 481.082C165.713 540.847 259.795 519.757 317.216 547.118C370.57 572.542 407.225 632.392 466.25 635.009C529.27 637.802 592.141 607.096 635.83 561.241C678.666 516.283 698.915 452.774 699.143 390.574C699.349 334.36 662.989 288.236 637.012 238.514C612.008 190.653 601.088 124.966 550.624 106.293C500.068 87.5861 449.505 131.372 399.008 150.447C360.977 164.814 322.682 176.325 292.574 203.775C261.664 231.956 246.821 270.427 226.953 307.314Z" stroke="url(#paint19_linear_106_147)" stroke-width="3"/>
<path opacity="0.21" fill-rule="evenodd" clip-rule="evenodd" d="M225.293 304.831C193.15 362.092 116.807 414.705 138.843 476.496C160.218 536.43 254.322 517.055 311.056 545.314C363.772 571.571 399.252 631.837 458.015 635.471C520.756 639.35 583.929 609.852 628.255 564.928C671.715 520.882 692.994 457.963 694.302 395.998C695.484 339.997 660.059 293.411 635.042 243.422C610.961 195.305 601.223 129.672 551.269 110.191C501.223 90.6736 450.085 133.416 399.443 151.542C361.301 165.194 322.947 175.995 292.472 202.819C261.185 230.358 245.728 268.427 225.293 304.831Z" stroke="url(#paint20_linear_106_147)" stroke-width="3"/>
<path opacity="0.22" fill-rule="evenodd" clip-rule="evenodd" d="M223.708 302.337C190.688 358.824 113.713 409.912 134.594 471.856C154.848 531.938 248.942 514.274 304.976 543.414C357.042 570.49 391.343 631.148 449.827 635.791C512.269 640.748 575.722 612.459 620.665 568.475C664.731 525.349 687.025 463.035 689.405 401.324C691.556 345.553 657.071 298.525 633.015 248.287C609.859 199.93 601.298 134.373 551.866 114.095C502.344 93.78 450.652 135.473 399.881 152.651C361.642 165.588 323.242 175.681 292.413 201.875C260.763 228.766 244.701 266.424 223.708 302.337Z" stroke="url(#paint21_linear_106_147)" stroke-width="3"/>
<path opacity="0.23" fill-rule="evenodd" clip-rule="evenodd" d="M222.201 299.832C188.321 355.532 110.743 405.09 130.47 467.165C149.605 527.374 243.658 511.413 298.978 541.419C350.381 569.301 383.502 630.328 441.688 635.971C503.813 641.996 567.523 614.918 613.065 571.88C657.717 529.683 681.011 467.99 684.455 406.551C687.567 351.027 654.027 303.575 630.933 253.107C608.704 204.528 601.313 139.067 552.417 118.005C503.431 96.9048 451.205 137.542 400.323 153.772C362.001 165.995 323.567 175.382 292.398 200.941C260.397 227.182 243.74 264.419 222.201 299.832Z" stroke="url(#paint22_linear_106_147)" stroke-width="3"/>
<path opacity="0.24" fill-rule="evenodd" clip-rule="evenodd" d="M220.77 297.317C186.049 352.219 107.896 400.24 126.472 462.425C144.49 522.741 238.471 508.477 293.065 539.333C343.792 568.004 375.729 629.379 433.602 636.013C495.391 643.096 559.336 617.228 605.457 575.145C650.676 533.883 674.956 472.828 679.455 411.68C683.52 356.418 650.929 308.561 628.798 257.881C607.495 209.098 601.27 143.755 552.921 121.921C504.483 100.047 451.745 139.623 400.77 154.906C362.378 166.416 323.923 175.1 292.425 200.02C260.087 225.605 242.845 262.412 220.77 297.317Z" stroke="url(#paint23_linear_106_147)" stroke-width="3"/>
<path opacity="0.25" fill-rule="evenodd" clip-rule="evenodd" d="M219.416 294.796C183.87 348.886 105.174 395.366 122.601 457.64C139.503 518.042 233.382 505.467 287.236 537.157C337.277 566.602 368.029 628.301 425.57 635.918C487.007 644.05 551.163 619.392 597.843 578.27C643.611 537.951 668.861 477.548 674.406 416.71C679.417 361.727 647.778 313.483 626.61 262.609C606.234 213.639 601.168 148.434 553.378 125.841C505.501 103.207 452.271 141.716 401.22 156.054C362.771 166.853 324.309 174.834 292.495 199.113C259.833 224.038 242.016 260.406 219.416 294.796Z" stroke="url(#paint24_linear_106_147)" stroke-width="3"/>
<path opacity="0.26" fill-rule="evenodd" clip-rule="evenodd" d="M218.14 292.268C181.787 345.535 102.578 390.47 118.857 452.811C134.646 513.279 228.393 502.385 281.495 534.892C330.837 565.097 360.402 627.098 417.596 635.687C478.662 644.858 543.007 621.41 590.227 581.256C636.524 541.886 662.73 482.151 669.311 421.639C675.258 366.952 644.577 318.34 624.371 267.29C604.923 218.151 601.008 153.104 553.789 129.765C506.484 106.383 452.784 143.82 401.675 157.216C363.182 167.304 324.725 174.586 292.608 198.219C259.635 222.482 241.253 258.402 218.14 292.268Z" stroke="url(#paint25_linear_106_147)" stroke-width="3"/>
<path opacity="0.27" fill-rule="evenodd" clip-rule="evenodd" d="M216.941 289.736C179.799 342.169 100.106 385.554 115.241 447.942C129.92 508.455 223.505 499.234 275.843 532.542C324.476 563.491 352.852 625.771 409.683 635.323C470.36 645.522 534.871 623.283 582.611 584.103C629.419 545.688 656.565 486.636 664.172 426.469C671.047 372.093 641.325 323.131 622.083 271.923C603.561 222.633 600.79 157.765 554.155 133.692C507.433 109.576 453.284 145.936 402.134 158.391C363.61 167.772 325.171 174.356 292.764 197.341C259.493 220.937 240.555 256.402 216.941 289.736Z" stroke="url(#paint26_linear_106_147)" stroke-width="3"/>
<path opacity="0.28" fill-rule="evenodd" clip-rule="evenodd" d="M215.819 287.202C177.906 338.789 97.759 380.621 111.753 443.035C125.326 503.573 218.719 496.017 270.282 530.108C318.193 561.786 345.381 624.323 401.832 634.827C462.103 646.043 526.757 625.011 574.999 586.812C622.298 549.358 650.367 491.004 658.991 431.198C666.785 377.149 638.026 327.856 619.745 276.508C602.149 227.083 600.517 162.414 554.474 137.622C508.348 112.784 453.771 148.064 402.597 159.581C364.055 168.255 325.646 174.146 292.962 196.478C259.406 219.406 239.923 254.406 215.819 287.202Z" stroke="url(#paint27_linear_106_147)" stroke-width="3"/>
<path opacity="0.29" fill-rule="evenodd" clip-rule="evenodd" d="M214.774 284.668C176.108 335.397 95.5374 375.674 108.394 438.093C120.865 498.636 214.036 492.734 264.811 527.593C311.991 559.984 337.99 622.754 394.045 634.201C453.894 646.423 518.67 626.597 567.393 589.383C615.164 552.897 644.141 495.254 653.771 435.826C662.474 382.119 634.68 332.515 617.36 281.045C600.689 231.503 600.186 167.052 554.749 141.554C509.228 116.008 454.245 150.202 403.064 160.785C364.517 168.755 326.151 173.955 293.202 195.633C259.375 217.889 239.357 252.416 214.774 284.668Z" stroke="url(#paint28_linear_106_147)" stroke-width="3"/>
<path opacity="0.3" fill-rule="evenodd" clip-rule="evenodd" d="M213.807 282.133C174.406 331.995 93.4413 370.716 105.165 433.119C116.537 493.647 209.457 489.389 259.434 524.998C305.873 558.086 330.683 621.068 386.327 633.447C445.736 646.664 510.611 628.041 559.795 591.818C608.019 556.303 637.887 499.385 648.514 440.354C658.117 387.004 631.289 337.106 614.93 285.532C599.182 235.89 599.801 171.678 554.979 145.486C510.074 119.246 454.705 152.352 403.535 162.003C364.995 169.272 326.684 173.784 293.483 194.805C259.398 216.387 238.857 250.433 213.807 282.133Z" stroke="url(#paint29_linear_106_147)" stroke-width="3"/>
<path opacity="0.31" fill-rule="evenodd" clip-rule="evenodd" d="M212.917 279.602C172.8 328.585 91.4707 365.748 102.066 428.115C112.343 488.608 204.984 485.984 254.152 522.326C299.84 556.095 323.461 619.267 378.678 632.566C437.632 646.766 502.583 629.345 552.21 594.117C600.867 559.578 631.61 503.4 643.221 444.78C653.715 391.803 627.856 341.63 612.454 289.97C597.629 240.244 599.361 176.29 555.164 149.419C510.886 122.498 455.153 154.513 404.009 163.236C365.49 169.806 327.247 173.634 293.807 193.997C259.477 214.902 238.422 248.459 212.917 279.602Z" stroke="url(#paint30_linear_106_147)" stroke-width="3"/>
<path opacity="0.32" fill-rule="evenodd" clip-rule="evenodd" d="M212.104 277.074C171.289 325.17 89.6255 360.773 99.0971 423.084C108.284 483.522 200.617 482.521 248.966 519.579C293.893 554.012 316.327 617.352 371.102 631.561C429.584 646.733 494.589 630.509 544.638 596.282C593.71 562.723 625.311 507.296 637.896 449.105C649.269 396.515 624.381 346.086 609.935 294.357C596.031 244.565 598.866 180.889 555.305 153.352C511.664 125.764 455.587 156.685 404.488 164.485C366.002 170.359 327.838 173.506 294.172 193.208C259.61 213.435 238.053 246.496 212.104 277.074Z" stroke="url(#paint31_linear_106_147)" stroke-width="3"/>
<path opacity="0.33" fill-rule="evenodd" clip-rule="evenodd" d="M211.368 274.552C169.874 321.751 87.9051 355.795 96.2582 418.029C104.36 478.393 196.356 479.003 243.877 516.759C288.033 551.841 309.281 615.326 363.599 630.434C421.594 646.564 486.632 631.536 537.083 598.312C586.549 565.737 618.992 511.075 632.54 453.329C644.783 401.141 620.866 350.474 607.374 298.694C594.387 248.853 598.318 185.472 555.402 157.284C512.407 129.043 456.008 158.869 404.969 165.748C366.529 170.929 328.456 173.4 294.578 192.439C259.797 211.987 237.748 244.544 211.368 274.552Z" stroke="url(#paint32_linear_106_147)" stroke-width="3"/>
<path opacity="0.34" fill-rule="evenodd" clip-rule="evenodd" d="M210.709 272.037C168.555 318.331 86.3101 350.815 93.5503 412.953C100.573 473.223 192.204 475.432 238.887 513.869C282.263 549.583 302.327 613.191 356.174 629.186C413.665 646.263 478.714 632.425 529.548 600.209C579.39 568.622 612.657 514.737 627.155 457.451C640.257 405.679 617.312 354.793 604.771 302.979C592.7 253.106 597.716 190.04 555.455 161.214C513.116 132.335 456.417 161.063 405.455 167.027C367.072 171.519 329.103 173.317 295.024 191.693C260.038 210.558 237.509 242.605 210.709 272.037Z" stroke="url(#paint33_linear_106_147)" stroke-width="3"/>
<path opacity="0.35" fill-rule="evenodd" clip-rule="evenodd" d="M210.126 269.532C167.332 314.911 84.8402 345.837 90.9734 407.858C96.9223 468.015 188.161 471.811 233.996 510.91C276.585 547.24 295.467 610.949 348.828 627.819C405.801 645.831 470.838 633.179 522.036 601.974C572.233 571.378 606.308 518.283 621.744 461.472C635.695 410.131 613.722 359.043 602.13 307.213C590.971 257.325 597.063 194.592 555.466 165.143C513.792 135.639 456.812 163.267 405.944 168.321C367.631 172.127 329.778 173.257 295.512 190.968C260.332 209.151 237.334 240.681 210.126 269.532Z" stroke="url(#paint34_linear_106_147)" stroke-width="3"/>
<path opacity="0.36" fill-rule="evenodd" clip-rule="evenodd" d="M209.62 267.036C166.203 311.493 83.4948 340.861 88.5272 402.747C93.4085 462.772 184.228 468.142 229.206 507.886C270.999 544.815 288.701 608.603 341.562 626.336C398.002 645.269 463.007 633.799 514.548 603.607C565.082 574.005 599.946 521.711 616.309 465.392C631.098 414.494 610.097 363.224 599.449 311.395C589.2 261.508 596.358 199.127 555.433 169.068C514.433 138.955 457.195 165.483 406.435 169.631C368.206 172.755 330.479 173.222 296.038 190.267C260.68 207.766 237.223 238.773 209.62 267.036Z" stroke="url(#paint35_linear_106_147)" stroke-width="3"/>
<path opacity="0.37" fill-rule="evenodd" clip-rule="evenodd" d="M209.19 264.553C165.171 308.079 82.274 335.892 86.2124 397.622C90.0324 457.497 180.405 464.427 224.518 504.797C265.507 542.31 282.033 606.155 334.381 624.739C390.272 644.581 455.223 634.288 507.087 605.111C557.939 576.505 593.575 525.024 610.853 469.211C626.467 418.77 606.438 367.336 596.732 315.525C587.389 265.655 595.602 203.644 555.358 172.991C515.041 142.282 457.565 167.709 406.931 170.957C368.796 173.404 331.208 173.212 296.605 189.59C261.08 206.405 237.177 236.881 209.19 264.553Z" stroke="url(#paint36_linear_106_147)" stroke-width="3"/>
<path opacity="0.38" fill-rule="evenodd" clip-rule="evenodd" d="M208.836 262.084C164.233 304.672 81.177 330.932 84.0282 392.487C86.7938 452.193 176.693 460.668 219.933 501.648C260.111 539.726 275.463 603.608 327.284 623.03C382.612 643.767 447.488 634.645 499.657 606.487C550.806 578.879 587.197 528.221 605.376 472.928C621.805 422.958 602.748 371.378 593.979 319.603C585.538 269.766 594.796 208.142 555.242 176.91C515.615 145.62 457.922 169.946 407.429 172.3C369.401 174.073 331.963 173.227 297.211 188.938C261.533 205.068 237.194 235.008 208.836 262.084Z" stroke="url(#paint37_linear_106_147)" stroke-width="3"/>
<path opacity="0.39" fill-rule="evenodd" clip-rule="evenodd" d="M208.557 259.63C163.389 301.273 80.2036 325.983 81.975 387.344C83.6932 446.862 173.093 456.869 215.451 498.44C254.811 537.067 268.994 600.964 320.274 621.211C375.025 642.829 439.805 634.873 492.258 607.734C543.686 581.126 580.814 531.302 599.882 476.545C617.114 427.059 599.027 375.35 591.191 323.627C583.649 273.841 593.94 212.622 555.083 180.824C516.155 148.968 458.266 172.193 407.93 173.659C370.02 174.762 332.744 173.268 297.856 188.312C262.037 203.757 237.274 233.155 208.557 259.63Z" stroke="url(#paint38_linear_106_147)" stroke-width="3"/>
<path opacity="0.4" fill-rule="evenodd" clip-rule="evenodd" d="M208.354 257.193C162.641 297.884 79.3539 321.048 80.0531 382.196C80.7313 441.508 169.605 453.032 211.075 495.175C249.609 534.334 262.628 598.224 313.354 619.284C367.514 641.77 432.178 634.973 484.895 608.856C536.582 583.249 574.429 534.269 594.372 480.061C612.396 431.071 595.277 379.253 588.371 327.599C581.722 277.879 593.036 217.082 554.884 184.734C516.662 152.326 458.597 174.451 408.435 175.034C370.655 175.474 333.551 173.336 298.539 187.713C262.594 202.473 237.417 231.323 208.354 257.193Z" stroke="url(#paint39_linear_106_147)" stroke-width="3"/>
<path opacity="0.41" fill-rule="evenodd" clip-rule="evenodd" d="M208.226 254.775C161.987 294.508 78.6266 316.129 78.2616 377.046C77.9076 436.133 166.23 449.159 206.805 491.857C244.507 531.531 256.364 595.393 306.525 617.252C360.081 640.591 424.607 634.948 477.569 609.852C529.497 585.247 568.044 537.121 588.85 483.477C607.652 434.996 591.501 383.086 585.518 331.517C579.759 281.879 592.083 221.522 554.643 188.638C517.135 155.694 458.916 176.72 408.942 176.427C371.303 176.207 334.383 173.432 299.26 187.142C263.201 201.217 237.623 229.514 208.226 254.775Z" stroke="url(#paint40_linear_106_147)" stroke-width="3"/>
<path opacity="0.42" fill-rule="evenodd" clip-rule="evenodd" d="M208.171 252.376C161.427 291.145 78.0217 311.229 76.6007 371.896C75.2224 430.741 162.969 445.253 202.641 488.486C239.504 528.658 250.207 592.472 299.789 615.117C352.727 639.295 417.095 634.798 470.283 610.725C522.431 587.123 561.661 539.86 583.315 486.792C602.885 438.833 587.699 386.849 582.635 335.382C577.76 285.842 591.083 225.94 554.363 192.536C517.575 159.07 459.222 178.999 409.451 177.837C371.966 176.962 335.241 173.555 300.019 186.599C263.858 199.99 237.89 227.728 208.171 252.376Z" stroke="url(#paint41_linear_106_147)" stroke-width="3"/>
<path opacity="0.43" fill-rule="evenodd" clip-rule="evenodd" d="M208.191 250C160.959 287.799 77.5382 306.35 75.0699 366.749C72.6757 425.334 159.82 441.316 198.585 485.067C234.604 525.719 244.156 589.463 293.148 612.881C345.455 637.885 409.645 634.526 463.038 611.476C515.389 588.876 555.283 542.486 577.772 490.008C598.096 442.582 583.873 390.542 579.722 339.193C575.727 289.767 590.036 230.337 554.042 196.428C517.982 162.456 459.515 181.288 409.963 179.264C372.642 177.74 336.122 173.707 300.814 186.085C264.565 198.793 238.219 225.968 208.191 250Z" stroke="url(#paint42_linear_106_147)" stroke-width="3"/>
<path opacity="0.44" fill-rule="evenodd" clip-rule="evenodd" d="M208.284 247.646C160.586 284.471 77.1761 301.494 73.6693 361.608C70.2679 419.915 156.787 437.35 194.637 481.6C229.806 522.716 238.214 586.37 286.603 610.547C338.268 636.361 402.259 634.134 455.839 612.106C508.372 590.509 548.912 545 572.222 493.125C593.288 446.243 580.024 394.165 576.782 342.951C573.66 293.654 588.944 234.712 553.682 200.312C518.356 165.849 459.796 183.587 410.477 180.709C373.332 178.541 337.028 173.888 301.646 185.602C265.322 197.627 238.61 224.234 208.284 247.646Z" stroke="url(#paint43_linear_106_147)" stroke-width="3"/>
<path opacity="0.45" fill-rule="evenodd" clip-rule="evenodd" d="M208.451 245.317C160.304 281.163 76.9341 296.665 72.3982 356.474C67.9985 414.487 153.867 433.358 190.797 478.089C225.112 519.652 232.381 583.195 280.157 608.117C331.166 634.726 394.938 633.622 448.686 612.617C501.383 592.021 542.55 547.403 566.666 496.143C588.462 449.817 576.155 397.718 573.814 346.654C571.561 297.502 587.806 239.065 553.283 204.19C518.697 169.25 460.064 185.897 410.993 182.171C374.035 179.365 337.957 174.1 302.514 185.149C266.127 196.494 239.061 222.528 208.451 245.317Z" stroke="url(#paint44_linear_106_147)" stroke-width="3"/>
<path opacity="0.46" fill-rule="evenodd" clip-rule="evenodd" d="M208.689 243.015C160.115 277.877 76.8115 291.864 71.2559 351.352C65.8672 409.053 151.062 429.344 187.067 474.536C220.522 516.528 226.66 579.94 273.81 605.594C324.152 632.983 387.686 632.994 441.582 613.01C494.424 593.416 536.199 549.695 561.108 499.062C583.619 453.304 572.267 401.202 570.821 350.304C569.43 301.312 586.624 243.394 552.845 208.059C519.005 172.659 460.32 188.217 411.511 183.652C374.75 180.214 338.91 174.341 303.418 184.729C266.98 195.394 239.571 220.851 208.689 243.015Z" stroke="url(#paint45_linear_106_147)" stroke-width="3"/>
<path opacity="0.47" fill-rule="evenodd" clip-rule="evenodd" d="M208.999 240.74C160.016 274.615 76.8077 287.094 70.2422 346.244C63.874 403.616 148.372 425.308 183.447 470.943C216.038 513.348 221.05 576.609 267.564 602.979C317.227 631.134 380.505 632.251 434.529 613.287C487.497 594.692 529.862 551.877 555.549 501.884C578.763 456.704 568.36 404.616 567.804 353.9C567.269 305.083 585.398 247.7 552.369 211.92C519.28 176.074 460.563 190.548 412.03 185.151C375.478 181.086 339.885 174.613 304.356 184.341C267.881 194.328 240.141 219.204 208.999 240.74Z" stroke="url(#paint46_linear_106_147)" stroke-width="3"/>
<path opacity="0.48" fill-rule="evenodd" clip-rule="evenodd" d="M209.381 238.495C160.009 271.378 76.9219 282.358 69.3567 341.152C62.0188 398.179 145.797 421.254 179.938 467.314C211.661 510.113 215.554 573.203 261.422 600.275C310.394 629.18 373.395 631.395 427.529 613.449C480.605 595.853 523.54 553.95 549.99 504.609C573.894 460.017 564.438 407.96 564.764 357.441C565.078 308.814 584.129 251.981 551.855 215.772C519.523 179.497 460.793 192.888 412.551 186.668C376.218 181.984 340.882 174.917 305.329 183.987C268.828 193.297 240.769 217.589 209.381 238.495Z" stroke="url(#paint47_linear_106_147)" stroke-width="3"/>
<path opacity="0.49" fill-rule="evenodd" clip-rule="evenodd" d="M209.832 236.281C160.092 268.169 77.1531 277.657 68.5986 336.078C60.3012 392.744 143.338 417.184 176.539 463.65C207.39 506.826 210.173 569.726 255.384 597.486C303.655 627.125 366.361 630.429 420.585 613.498C473.75 596.899 517.237 555.915 544.435 507.236C569.015 463.244 560.501 411.236 561.702 360.929C562.859 312.506 582.818 256.238 551.304 219.615C519.733 182.925 461.01 195.239 413.074 188.205C376.97 182.906 341.9 175.253 306.335 183.666C269.822 192.303 241.456 216.007 209.832 236.281Z" stroke="url(#paint48_linear_106_147)" stroke-width="3"/>
<path opacity="0.5" fill-rule="evenodd" clip-rule="evenodd" d="M210.354 234.098C160.264 264.99 77.5007 272.994 67.9675 331.026C58.7209 387.315 140.993 413.1 173.253 459.954C203.228 503.489 204.908 566.179 249.452 594.613C297.011 624.971 359.402 629.353 413.698 613.437C466.933 597.831 510.954 557.773 538.885 509.768C564.128 466.384 556.55 414.442 558.62 364.363C560.612 316.159 581.466 260.47 550.717 223.449C519.911 186.359 461.215 197.6 413.597 189.76C377.733 183.854 342.94 175.622 307.375 183.381C270.861 191.347 242.2 214.459 210.354 234.098Z" stroke="url(#paint49_linear_106_147)" stroke-width="3"/>
<path opacity="0.51" fill-rule="evenodd" clip-rule="evenodd" d="M210.945 231.95C160.525 261.842 77.9633 268.371 67.4625 325.998C57.2773 381.894 138.764 409.005 170.078 456.228C199.174 500.106 199.76 562.567 243.627 591.659C290.464 622.72 352.523 628.171 406.871 613.265C460.158 598.652 504.692 559.525 533.342 512.205C559.233 469.439 552.588 417.579 555.518 367.743C558.338 319.773 580.073 264.676 550.092 227.272C520.057 189.799 461.408 199.971 414.122 191.334C378.508 184.828 344 176.024 308.447 183.131C271.945 190.428 243.001 212.946 210.945 231.95Z" stroke="url(#paint50_linear_106_147)" stroke-width="3"/>
<path opacity="0.52" fill-rule="evenodd" clip-rule="evenodd" d="M211.605 229.837C160.874 258.727 78.54 263.791 67.0828 320.997C55.9698 376.484 136.649 404.903 167.015 452.475C195.23 496.678 194.73 558.891 237.911 588.626C284.015 620.375 345.723 626.884 400.106 612.987C453.426 599.361 498.455 561.173 527.807 514.547C554.334 472.409 548.616 420.648 552.398 371.069C556.039 323.347 578.64 268.856 549.432 231.085C520.171 193.244 461.588 202.353 414.646 192.927C379.292 185.829 345.081 176.46 309.55 182.919C273.073 189.55 243.858 211.47 211.605 229.837Z" stroke="url(#paint51_linear_106_147)" stroke-width="3"/>
<path opacity="0.53" fill-rule="evenodd" clip-rule="evenodd" d="M212.332 227.761C161.311 255.647 79.2301 259.256 66.8279 316.025C54.7984 371.088 134.65 400.794 164.064 448.697C191.396 493.208 189.818 555.154 232.305 585.518C277.667 617.938 339.006 625.494 393.404 612.602C446.74 599.962 492.245 562.716 522.284 516.795C549.431 475.295 544.635 423.648 549.262 374.341C553.716 326.88 577.168 273.01 548.737 234.887C520.254 196.694 461.755 204.744 415.172 194.54C380.088 186.855 346.18 176.93 310.685 182.743C274.244 188.711 244.77 210.031 212.332 227.761Z" stroke="url(#paint52_linear_106_147)" stroke-width="3"/>
<path opacity="0.54" fill-rule="evenodd" clip-rule="evenodd" d="M213.126 225.722C161.833 252.604 80.0319 254.769 66.6965 311.085C53.7618 365.709 132.766 396.681 161.226 444.897C187.672 489.699 185.026 551.359 226.809 582.336C271.42 615.411 332.372 624.004 386.767 612.113C440.1 600.455 486.062 564.157 516.773 518.95C544.527 478.096 540.647 426.581 546.11 377.56C551.368 330.375 575.658 277.137 548.006 238.678C520.304 200.148 461.909 207.146 415.697 196.173C380.893 187.909 347.299 177.434 311.851 182.605C275.458 187.914 245.736 208.632 213.126 225.722Z" stroke="url(#paint53_linear_106_147)" stroke-width="3"/>
<path opacity="0.55" fill-rule="evenodd" clip-rule="evenodd" d="M213.986 223.723C162.442 249.599 80.9448 250.33 66.6882 306.179C52.86 360.349 130.996 392.568 158.501 441.078C184.059 486.153 180.355 547.508 221.425 579.084C265.276 612.797 325.824 622.416 380.199 611.522C433.511 600.841 479.91 565.496 511.276 521.013C539.623 480.813 536.653 429.446 542.944 380.725C548.999 333.829 574.11 281.237 547.241 242.457C520.323 203.606 462.052 209.558 416.223 197.826C381.707 188.99 348.435 177.974 313.046 182.506C276.713 187.159 246.757 207.273 213.986 223.723Z" stroke="url(#paint54_linear_106_147)" stroke-width="3"/>
<path opacity="0.56" fill-rule="evenodd" clip-rule="evenodd" d="M214.911 221.766C163.134 246.635 81.967 245.944 66.8015 301.309C52.0917 355.011 129.341 388.456 155.889 437.241C180.557 482.572 175.804 543.605 216.155 575.764C259.236 610.099 319.364 620.732 373.698 610.831C426.972 601.124 473.789 566.735 505.796 522.985C534.721 483.447 532.655 432.245 539.764 383.838C546.607 337.244 572.525 285.31 546.442 246.225C520.311 207.068 462.181 211.98 416.748 199.499C382.531 190.099 349.59 178.55 314.27 182.446C278.009 186.447 247.829 205.954 214.911 221.766Z" stroke="url(#paint55_linear_106_147)" stroke-width="3"/>
<path opacity="0.57" fill-rule="evenodd" clip-rule="evenodd" d="M215.901 219.85C163.911 243.713 83.098 241.611 67.036 296.479C51.4566 349.698 127.8 384.347 153.39 433.389C177.168 478.959 171.376 539.653 210.998 572.379C253.303 607.32 312.992 618.955 367.27 610.042C420.487 601.303 467.703 567.874 500.334 524.867C529.823 485.999 528.653 434.976 536.572 386.897C544.195 340.618 570.904 289.355 545.609 249.98C520.268 210.533 462.297 214.412 417.273 201.193C383.363 191.237 350.761 179.162 315.523 182.427C279.345 185.779 248.955 204.679 215.901 219.85Z" stroke="url(#paint56_linear_106_147)" stroke-width="3"/>
<path opacity="0.58" fill-rule="evenodd" clip-rule="evenodd" d="M216.954 217.978C164.77 240.834 84.3359 237.334 67.3902 291.69C50.9537 344.413 126.373 380.245 151.004 429.526C173.89 475.317 167.07 535.653 205.957 568.93C247.476 604.461 306.711 617.086 360.913 609.156C414.057 601.381 461.653 568.916 494.891 526.659C524.93 488.469 524.65 437.641 533.37 389.904C541.763 343.953 569.249 293.372 544.744 253.723C520.194 214.001 462.401 216.854 417.797 202.907C384.203 192.402 351.949 179.811 316.803 182.448C280.721 185.156 250.131 203.447 216.954 217.978Z" stroke="url(#paint57_linear_106_147)" stroke-width="3"/>
<path opacity="0.59" fill-rule="evenodd" clip-rule="evenodd" d="M218.069 216.151C165.711 238.001 85.6795 233.115 67.863 286.946C50.5819 339.159 125.059 376.152 148.73 425.652C170.725 471.648 162.887 531.609 201.032 565.422C241.758 601.525 300.522 615.129 354.631 608.176C407.683 601.36 455.641 569.861 489.47 528.362C520.044 490.858 520.647 440.241 530.157 392.858C539.312 347.249 567.558 297.361 543.845 257.453C520.088 217.472 462.492 219.306 418.32 204.641C385.051 193.596 353.152 180.497 318.11 182.511C282.134 184.579 251.357 202.259 218.069 216.151Z" stroke="url(#paint58_linear_106_147)" stroke-width="3"/>
<path opacity="0.6" fill-rule="evenodd" clip-rule="evenodd" d="M219.247 214.37C166.733 235.216 87.128 228.956 68.4539 282.247C50.3409 333.937 123.858 372.07 146.57 421.771C167.673 467.954 158.829 527.523 196.224 561.857C236.15 598.515 294.427 613.084 348.425 607.104C401.369 601.24 449.668 570.711 484.073 529.978C515.166 493.166 516.645 442.775 526.937 395.759C536.843 350.504 565.834 301.321 542.914 261.17C519.953 220.946 462.571 221.769 418.841 206.397C385.906 194.82 354.371 181.221 319.444 182.616C283.586 184.048 252.633 201.117 219.247 214.37Z" stroke="url(#paint59_linear_106_147)" stroke-width="3"/>
<path opacity="0.61" fill-rule="evenodd" clip-rule="evenodd" d="M220.484 212.637C167.834 232.479 88.6793 224.86 69.161 277.598C50.2291 328.751 122.769 368.001 144.522 417.886C164.733 464.238 154.894 523.399 191.533 558.237C230.652 595.434 288.426 610.956 342.297 605.941C395.116 601.025 443.737 571.468 478.701 531.508C510.299 495.394 512.645 445.245 523.708 398.609C534.357 353.72 564.077 305.252 541.952 264.874C519.787 224.422 462.637 224.242 419.361 208.174C386.768 196.073 355.604 181.982 320.802 182.763C285.073 183.565 253.958 200.022 220.484 212.637Z" stroke="url(#paint60_linear_106_147)" stroke-width="3"/>
<path opacity="0.62" fill-rule="evenodd" clip-rule="evenodd" d="M221.781 210.953C169.014 229.792 90.332 220.827 69.983 272.999C50.2455 323.603 121.793 363.948 142.586 413.998C161.907 460.503 151.083 519.239 186.96 554.566C225.266 592.284 282.522 608.745 336.248 604.691C388.924 600.715 437.848 572.131 473.355 532.952C505.444 497.544 508.649 447.651 520.474 401.408C531.855 356.896 562.287 309.154 540.958 268.564C519.59 227.899 462.689 226.725 419.879 209.973C387.636 197.355 356.85 182.783 322.185 182.954C286.596 183.13 255.329 198.975 221.781 210.953Z" stroke="url(#paint61_linear_106_147)" stroke-width="3"/>
<path opacity="0.63" fill-rule="evenodd" clip-rule="evenodd" d="M223.137 209.318C170.271 227.158 92.0852 216.862 70.9194 268.454C50.3896 318.496 120.927 359.914 140.762 410.11C159.193 456.751 147.398 515.045 182.507 550.845C219.992 589.068 276.715 606.455 330.279 603.354C382.796 600.313 432.005 572.704 468.037 534.312C500.601 499.615 504.659 449.993 517.234 404.155C529.338 360.034 560.467 313.027 539.934 272.24C519.363 231.378 462.729 229.218 420.395 211.792C388.51 198.668 358.11 183.622 323.592 183.189C288.154 182.745 256.748 197.976 223.137 209.318Z" stroke="url(#paint62_linear_106_147)" stroke-width="3"/>
<path opacity="0.64" fill-rule="evenodd" clip-rule="evenodd" d="M224.55 207.735C171.604 224.577 93.9364 212.964 71.9678 263.965C50.6592 313.433 120.172 355.9 139.051 406.224C156.592 452.985 143.837 510.822 178.173 547.078C214.832 585.788 271.007 604.089 324.392 601.933C376.734 599.82 426.207 573.188 462.749 535.589C495.774 501.609 500.674 452.272 513.989 406.851C526.806 363.132 558.615 316.87 538.879 275.902C519.106 234.859 462.756 231.722 420.907 213.634C389.389 200.011 359.382 184.501 325.022 183.469C289.745 182.409 258.211 197.028 224.55 207.735Z" stroke="url(#paint63_linear_106_147)" stroke-width="3"/>
<path opacity="0.65" fill-rule="evenodd" clip-rule="evenodd" d="M226.019 206.205C173.013 222.052 95.8855 209.136 73.1281 259.533C51.0545 308.416 119.528 351.909 137.451 402.344C154.105 449.207 140.402 506.571 173.959 543.268C209.788 582.448 265.4 601.647 318.589 600.431C370.739 599.239 420.459 573.583 457.493 536.784C490.963 503.527 496.698 454.489 510.743 409.497C524.262 366.19 556.734 320.683 537.795 279.549C518.82 238.34 462.77 234.236 421.418 215.498C390.273 201.385 360.667 185.419 326.474 183.793C291.37 182.124 259.719 196.13 226.019 206.205Z" stroke="url(#paint64_linear_106_147)" stroke-width="3"/>
<path opacity="0.66" fill-rule="evenodd" clip-rule="evenodd" d="M227.544 204.728C174.495 219.583 97.9294 205.381 74.3977 255.162C51.5731 303.447 118.992 347.943 135.962 398.47C151.73 445.42 137.093 502.295 169.866 539.416C204.858 579.05 259.893 599.134 312.871 598.849C364.813 598.57 414.759 573.892 452.27 537.898C486.169 505.369 492.729 456.644 507.493 412.093C521.704 369.21 554.824 324.467 536.68 283.183C518.504 241.822 462.771 236.76 421.925 217.383C391.161 202.79 361.961 186.378 327.947 184.164C293.025 181.89 261.271 195.284 227.544 204.728Z" stroke="url(#paint65_linear_106_147)" stroke-width="3"/>
<path opacity="0.67" fill-rule="evenodd" clip-rule="evenodd" d="M229.123 203.307C176.05 217.173 100.068 201.699 75.7762 250.853C52.2146 298.53 118.565 344.005 134.584 394.607C149.468 441.626 133.909 497.997 165.894 535.527C200.045 575.597 254.489 596.551 307.238 597.19C358.957 597.817 409.111 574.117 447.081 538.933C481.396 507.136 488.772 458.739 504.243 414.64C519.136 372.192 552.885 328.221 535.538 286.801C518.159 245.305 462.759 239.294 422.429 219.291C392.054 204.226 363.267 187.377 329.44 184.58C294.712 181.709 262.865 194.491 229.123 203.307Z" stroke="url(#paint66_linear_106_147)" stroke-width="3"/>
<path opacity="0.68" fill-rule="evenodd" clip-rule="evenodd" d="M230.754 201.941C177.675 214.822 102.297 198.093 77.2609 246.608C52.9766 293.666 118.245 340.097 133.315 390.755C147.318 437.827 130.85 493.68 162.043 531.602C195.348 572.091 249.188 593.901 301.693 595.456C353.172 596.98 403.516 574.257 441.928 539.889C476.642 508.83 484.825 460.773 500.993 417.137C516.556 375.135 550.919 331.945 534.366 290.404C517.784 248.788 462.733 241.839 422.928 221.221C392.949 205.693 364.582 188.417 330.953 185.044C296.428 181.58 264.5 193.752 230.754 201.941Z" stroke="url(#paint67_linear_106_147)" stroke-width="3"/>
<path opacity="0.69" fill-rule="evenodd" clip-rule="evenodd" d="M232.438 200.633C179.371 212.533 104.618 194.565 78.8514 242.43C53.8588 288.858 118.032 336.22 132.157 386.918C145.281 434.026 127.918 489.347 158.314 527.645C190.769 568.535 243.992 591.187 296.237 593.649C347.46 596.063 397.975 574.317 436.812 540.769C471.911 510.451 480.891 462.749 497.744 419.586C513.966 378.04 548.926 335.638 533.167 293.993C517.38 252.271 462.694 244.394 423.424 223.174C393.847 207.192 365.905 189.499 332.485 185.554C298.173 181.505 266.176 193.067 232.438 200.633Z" stroke="url(#paint68_linear_106_147)" stroke-width="3"/>
<path opacity="0.7" fill-rule="evenodd" clip-rule="evenodd" d="M234.172 199.382C181.135 210.306 107.027 191.116 80.5454 238.321C54.8591 284.108 117.924 332.378 131.107 383.098C143.356 430.226 125.11 484.999 154.707 523.657C186.308 564.932 238.901 588.41 290.87 591.771C341.823 595.066 392.489 574.296 431.735 541.573C467.203 512 476.971 464.665 494.497 421.987C511.367 380.907 546.906 339.301 531.941 297.566C516.947 255.754 462.642 246.959 423.915 225.149C394.747 208.723 367.237 190.622 334.034 186.113C299.945 181.483 267.89 192.438 234.172 199.382Z" stroke="url(#paint69_linear_106_147)" stroke-width="3"/>
<path opacity="0.71" fill-rule="evenodd" clip-rule="evenodd" d="M235.955 198.191C182.967 208.143 109.524 187.748 82.3416 234.283C55.9763 279.419 117.922 328.573 130.166 379.297C141.543 426.429 122.429 480.642 151.223 519.643C181.965 561.285 233.916 585.574 285.593 589.825C336.261 593.993 387.061 574.197 426.699 542.302C462.521 513.478 473.065 466.523 491.253 424.34C508.76 383.736 544.862 342.934 530.687 301.123C516.486 259.236 462.576 249.535 424.401 227.147C395.649 210.287 368.576 191.786 335.6 186.719C301.745 181.517 269.643 191.865 235.955 198.191Z" stroke="url(#paint70_linear_106_147)" stroke-width="3"/>
<path opacity="0.72" fill-rule="evenodd" clip-rule="evenodd" d="M237.786 197.061C184.863 206.045 112.105 184.463 84.2379 230.317C57.2084 274.793 118.023 324.806 129.332 375.517C139.84 422.638 119.872 476.275 147.86 515.604C177.742 557.596 229.037 582.682 280.409 587.813C330.776 592.844 381.69 574.021 421.703 542.959C457.864 514.886 469.175 468.325 488.013 426.646C506.146 386.528 542.792 346.536 529.406 304.665C515.996 262.717 462.497 252.121 424.881 229.169C396.551 211.882 369.921 192.993 337.181 187.375C303.568 181.606 271.432 191.349 237.786 197.061Z" stroke="url(#paint71_linear_106_147)" stroke-width="3"/>
<path opacity="0.73" fill-rule="evenodd" clip-rule="evenodd" d="M239.664 195.992C186.825 204.015 114.769 181.262 86.2332 226.426C58.5545 270.232 118.226 321.081 128.605 371.762C138.248 418.854 117.44 471.904 144.619 511.545C173.638 553.868 224.267 579.735 275.317 585.738C325.369 591.623 376.38 573.771 416.75 543.544C453.235 516.227 465.302 470.07 484.778 428.906C503.524 389.283 540.699 350.109 528.1 308.192C515.477 266.198 462.404 254.717 425.357 231.213C397.454 213.511 371.272 194.243 338.778 188.079C305.417 181.752 273.257 190.891 239.664 195.992Z" stroke="url(#paint72_linear_106_147)" stroke-width="3"/>
<path opacity="0.74" fill-rule="evenodd" clip-rule="evenodd" d="M241.587 194.985C188.849 202.052 117.515 178.148 88.3256 222.611C60.0128 265.739 118.532 317.398 127.984 368.032C136.767 415.081 115.133 467.53 141.502 507.466C169.655 550.104 219.604 576.736 270.319 583.601C320.042 590.331 371.13 573.447 411.842 544.059C448.634 517.499 461.448 471.76 481.549 431.12C500.897 392.001 538.582 353.65 526.767 311.702C514.931 269.677 462.298 257.324 425.826 233.281C398.358 215.172 372.628 195.535 340.388 188.834C307.289 181.954 275.117 190.492 241.587 194.985Z" stroke="url(#paint73_linear_106_147)" stroke-width="3"/>
<path opacity="0.75" fill-rule="evenodd" clip-rule="evenodd" d="M243.555 194.042C190.935 200.159 120.341 175.12 90.513 218.875C61.5814 261.316 118.937 313.76 127.468 364.33C135.395 411.32 112.95 463.156 138.506 503.371C165.791 546.307 215.051 573.688 265.415 581.404C314.795 588.97 365.943 573.051 406.978 544.504C444.063 518.705 457.612 473.396 478.326 433.289C498.265 394.683 536.443 357.161 525.41 315.196C514.356 273.155 462.177 259.942 426.289 235.372C399.26 216.867 373.989 196.87 342.012 189.638C309.183 182.213 277.009 190.152 243.555 194.042Z" stroke="url(#paint74_linear_106_147)" stroke-width="3"/>
<path opacity="0.76" fill-rule="evenodd" clip-rule="evenodd" d="M245.565 193.162C193.08 198.336 123.244 172.182 92.794 215.22C63.2588 256.964 119.442 310.17 127.057 360.66C134.133 407.574 110.892 458.785 135.632 499.262C162.048 542.479 210.607 570.594 260.606 579.152C309.629 587.543 360.819 572.586 402.161 544.883C439.524 519.846 453.796 474.978 475.111 435.413C495.628 397.329 534.282 360.641 524.027 318.675C513.753 276.631 462.043 262.57 426.745 237.486C400.161 218.595 375.352 198.249 343.648 190.492C311.098 182.529 278.934 189.873 245.565 193.162Z" stroke="url(#paint75_linear_106_147)" stroke-width="3"/>
<path opacity="0.77" fill-rule="evenodd" clip-rule="evenodd" d="M247.617 192.348C195.284 196.585 126.223 169.334 95.1665 211.646C65.0432 252.687 120.045 306.629 126.749 357.021C132.978 403.846 108.956 454.42 132.881 495.143C158.425 538.623 206.273 567.455 255.894 576.845C304.545 586.051 355.759 572.053 397.392 545.195C435.017 520.923 450.002 476.507 471.905 437.493C492.988 399.94 532.1 364.091 522.62 322.137C513.123 280.106 461.895 265.208 427.195 239.624C401.06 220.356 376.719 199.67 345.294 191.398C313.033 182.904 280.889 189.655 247.617 192.348Z" stroke="url(#paint76_linear_106_147)" stroke-width="3"/>
<path opacity="0.78" fill-rule="evenodd" clip-rule="evenodd" d="M249.709 191.601C197.544 194.907 129.275 166.579 97.6286 208.157C66.9327 248.486 120.745 303.139 126.544 353.418C131.932 400.137 107.144 450.062 130.251 491.016C154.923 534.742 202.05 564.276 251.279 574.486C299.545 584.497 350.765 571.454 392.671 545.444C430.543 521.937 446.229 477.984 468.708 439.529C490.345 402.515 529.898 367.511 521.19 325.583C512.465 283.578 461.732 267.857 427.636 241.786C401.957 222.151 378.087 201.136 346.951 192.354C314.986 183.338 282.874 189.499 249.709 191.601Z" stroke="url(#paint77_linear_106_147)" stroke-width="3"/>
<path opacity="0.79" fill-rule="evenodd" clip-rule="evenodd" d="M251.84 190.92C199.86 193.303 132.399 163.917 100.178 204.754C68.9255 244.364 121.54 299.702 126.44 349.852C130.992 396.451 105.453 445.715 127.743 486.884C151.542 530.839 197.938 561.057 246.76 572.077C294.629 582.882 345.837 570.791 388 545.629C426.104 522.889 442.479 479.411 465.52 441.523C487.699 405.055 527.676 370.899 519.735 329.012C511.78 287.049 461.555 270.516 428.07 243.972C402.85 223.979 379.456 202.646 348.617 193.362C316.957 183.831 284.887 189.404 251.84 190.92Z" stroke="url(#paint78_linear_106_147)" stroke-width="3"/>
<path opacity="0.8" fill-rule="evenodd" clip-rule="evenodd" d="M254.007 190.307C202.229 191.775 135.593 161.349 102.814 201.438C71.0198 240.322 122.429 296.321 126.436 346.325C130.159 392.789 103.884 441.382 125.356 482.749C148.282 526.916 193.937 557.803 242.34 569.622C289.798 581.21 340.977 570.066 383.379 545.753C421.7 523.781 438.753 480.788 462.344 443.475C485.052 407.561 525.435 374.258 518.258 332.426C511.067 290.517 461.364 273.186 428.495 246.181C403.74 225.842 380.825 204.199 350.291 194.422C318.943 184.384 286.927 189.373 254.007 190.307Z" stroke="url(#paint79_linear_106_147)" stroke-width="3"/>
<path opacity="0.81" fill-rule="evenodd" clip-rule="evenodd" d="M256.211 189.762C204.65 190.322 138.854 158.878 105.533 198.211C73.2139 236.362 123.41 292.997 126.531 342.84C129.431 389.154 102.436 437.065 123.09 478.615C145.142 522.977 190.047 554.515 238.019 567.121C285.053 579.482 336.186 569.28 378.811 545.817C417.333 524.613 435.052 482.115 459.18 445.386C482.404 410.033 523.175 377.587 516.757 335.823C510.328 293.982 461.158 275.867 428.912 248.415C404.626 227.739 382.193 205.797 351.972 195.534C320.946 184.997 288.993 189.406 256.211 189.762Z" stroke="url(#paint80_linear_106_147)" stroke-width="3"/>
<path opacity="0.82" fill-rule="evenodd" clip-rule="evenodd" d="M258.449 189.287C207.121 188.947 142.181 156.504 108.334 195.075C75.5051 232.486 124.483 289.732 126.724 339.398C128.807 385.547 101.108 432.767 120.944 474.483C142.122 519.023 186.269 551.196 233.796 564.579C280.395 577.7 331.463 568.435 374.295 545.823C413.003 525.387 431.376 483.395 456.028 447.256C479.756 412.471 520.898 380.885 515.235 339.203C509.561 297.445 460.937 278.558 429.319 250.672C405.506 229.67 383.56 207.44 353.659 196.698C322.961 185.67 291.082 189.503 258.449 189.287Z" stroke="url(#paint81_linear_106_147)" stroke-width="3"/>
<path opacity="0.83" fill-rule="evenodd" clip-rule="evenodd" d="M260.72 188.881C209.641 187.65 145.57 154.229 111.215 192.031C77.8923 228.697 125.645 286.528 127.014 336.002C128.287 381.972 99.9 428.49 118.918 470.356C139.224 515.057 182.603 547.848 229.673 561.996C275.824 575.867 326.812 567.533 369.833 545.772C408.713 526.105 427.727 484.628 452.889 449.087C477.108 414.876 518.603 384.153 513.69 342.567C508.768 300.904 460.701 281.26 429.717 252.954C406.381 231.635 384.924 209.126 355.351 197.914C324.99 186.404 293.195 189.664 260.72 188.881Z" stroke="url(#paint82_linear_106_147)" stroke-width="3"/>
<path opacity="0.84" fill-rule="evenodd" clip-rule="evenodd" d="M263.023 188.547C212.208 186.433 149.022 152.053 114.174 189.081C80.3733 224.995 126.896 283.387 127.4 332.653C127.869 378.43 98.8102 424.237 117.012 466.238C136.445 511.083 179.05 544.475 225.651 559.375C271.341 573.985 322.231 566.577 365.425 545.666C404.462 526.767 424.105 485.815 449.764 450.878C474.461 417.249 516.293 387.391 512.124 345.914C507.949 304.361 460.451 283.972 430.105 255.259C407.25 233.634 386.285 210.858 357.047 199.184C327.03 187.199 295.33 189.891 263.023 188.547Z" stroke="url(#paint83_linear_106_147)" stroke-width="3"/>
<path opacity="0.85" fill-rule="evenodd" clip-rule="evenodd" d="M265.356 188.284C214.819 185.296 152.532 149.978 117.208 186.226C82.9455 221.384 128.233 280.31 127.88 329.353C127.552 374.924 97.8376 420.009 115.223 462.13C133.786 507.102 175.608 541.079 221.728 556.72C266.947 572.055 317.722 565.567 361.073 545.506C400.251 527.375 420.511 486.958 446.653 452.63C471.816 419.589 513.966 390.599 510.537 349.245C507.102 307.814 460.185 286.695 430.482 257.589C408.111 235.668 387.642 212.634 358.746 200.507C329.081 188.056 297.485 190.184 265.356 188.284Z" stroke="url(#paint84_linear_106_147)" stroke-width="3"/>
<path opacity="0.86" fill-rule="evenodd" clip-rule="evenodd" d="M267.717 188.093C217.475 184.24 156.099 148.006 120.315 183.468C85.6073 217.864 129.655 277.3 128.453 326.106C127.336 371.455 96.9818 415.811 113.553 458.036C131.247 503.119 172.278 537.663 217.906 554.032C262.642 570.081 313.286 564.507 356.777 545.294C396.081 527.931 416.946 488.056 443.558 454.346C469.174 421.898 511.624 393.778 508.929 352.559C506.23 311.264 459.904 289.429 430.849 259.944C408.965 237.737 388.994 214.456 360.447 201.883C331.14 188.974 299.659 190.543 267.717 188.093Z" stroke="url(#paint85_linear_106_147)" stroke-width="3"/>
<path opacity="0.87" fill-rule="evenodd" clip-rule="evenodd" d="M270.105 187.975C220.172 183.267 159.72 146.136 123.494 180.808C88.3566 214.437 131.161 274.358 129.118 322.911C127.219 368.027 96.2416 411.645 112.001 453.957C128.827 499.134 169.061 534.228 214.184 551.313C258.426 568.064 308.923 563.398 352.538 545.032C391.954 528.435 413.41 489.112 440.479 456.024C466.534 424.175 509.268 396.927 507.301 355.857C505.331 314.711 459.608 292.173 431.204 262.322C409.811 239.84 390.34 216.322 362.149 203.312C333.207 189.955 301.851 190.968 270.105 187.975Z" stroke="url(#paint86_linear_106_147)" stroke-width="3"/>
<path opacity="0.88" fill-rule="evenodd" clip-rule="evenodd" d="M272.518 187.93C222.909 182.376 163.394 144.371 126.742 178.248C91.1907 211.106 132.748 271.486 129.872 319.773C127.2 364.64 95.6156 407.512 110.564 449.897C126.525 495.151 165.955 530.778 210.564 548.566C254.301 566.007 304.634 562.241 348.356 544.722C387.87 528.889 409.904 490.126 437.416 457.666C463.898 426.422 506.897 400.047 505.653 359.138C504.406 318.153 459.295 294.928 431.547 264.725C410.648 241.978 391.679 218.233 363.851 204.795C335.28 190.998 304.058 191.461 272.518 187.93Z" stroke="url(#paint87_linear_106_147)" stroke-width="3"/>
<path opacity="0.89" fill-rule="evenodd" clip-rule="evenodd" d="M274.956 187.959C225.684 181.569 167.118 142.711 130.056 175.788C94.1082 207.871 134.415 268.685 130.716 316.691C127.278 361.297 95.1035 403.415 109.244 445.858C124.341 491.173 162.962 527.315 207.045 545.794C250.266 563.912 300.42 561.039 344.234 544.364C383.83 529.294 406.429 491.099 434.371 459.273C461.266 428.639 504.514 403.138 503.985 362.402C503.456 321.592 458.968 297.693 431.878 267.152C411.476 244.15 393.011 220.189 365.551 206.331C337.359 192.104 306.281 192.022 274.956 187.959Z" stroke="url(#paint88_linear_106_147)" stroke-width="3"/>
<path opacity="0.9" fill-rule="evenodd" clip-rule="evenodd" d="M277.415 188.062C228.495 180.846 170.89 141.156 133.436 173.43C97.1063 204.734 136.161 265.957 131.647 313.668C127.452 358.001 94.7032 399.357 108.038 441.842C122.275 487.202 160.08 523.842 203.627 542.999C246.322 561.782 296.281 559.795 340.17 543.961C379.834 529.651 402.986 492.034 431.343 460.846C458.638 430.827 502.117 406.2 502.298 365.65C502.48 325.027 458.624 300.469 432.197 269.604C412.293 246.358 394.335 222.19 367.249 207.921C339.442 193.272 308.517 192.65 277.415 188.062Z" stroke="url(#paint89_linear_106_147)" stroke-width="3"/>
<path opacity="0.91" fill-rule="evenodd" clip-rule="evenodd" d="M279.896 188.241C231.341 180.208 174.708 139.709 136.877 171.176C100.183 201.697 137.983 263.304 132.663 310.706C127.719 354.752 94.414 395.34 106.946 437.851C120.326 483.241 157.309 520.361 200.309 540.183C242.47 559.617 292.217 558.508 336.165 543.514C375.883 529.963 399.574 492.929 428.333 462.385C456.015 432.985 499.708 409.233 500.592 368.882C501.478 328.457 458.263 303.255 432.502 272.08C413.099 248.6 395.649 224.237 368.944 209.566C341.528 194.504 310.765 193.347 279.896 188.241Z" stroke="url(#paint90_linear_106_147)" stroke-width="3"/>
<path opacity="0.92" fill-rule="evenodd" clip-rule="evenodd" d="M282.395 188.494C234.22 179.657 178.569 138.369 140.379 169.026C103.336 198.762 139.881 260.727 133.764 307.808C128.08 351.554 94.2346 391.366 105.967 433.89C118.493 479.292 154.65 516.875 197.094 537.348C238.709 557.421 288.23 557.183 332.222 543.025C371.978 530.23 396.195 493.787 425.343 463.891C453.398 435.115 497.288 412.237 498.868 372.097C500.451 331.884 457.887 306.053 432.793 274.58C413.894 250.877 396.952 226.328 370.634 211.264C343.615 195.798 313.024 194.113 282.395 188.494Z" stroke="url(#paint91_linear_106_147)" stroke-width="3"/>
<path opacity="0.93" fill-rule="evenodd" clip-rule="evenodd" d="M284.913 188.824C237.13 179.192 182.471 137.137 143.938 166.982C106.563 195.929 141.851 258.228 134.947 304.973C128.532 348.408 94.1635 387.438 105.099 429.958C116.776 475.357 152.101 513.386 193.979 534.498C235.039 555.196 284.319 555.82 328.338 542.495C368.12 530.454 392.849 494.609 422.371 465.365C450.787 437.216 494.857 415.213 497.125 375.296C499.398 335.306 457.494 308.86 433.071 277.105C414.677 253.188 398.245 228.465 372.319 213.016C345.702 197.156 315.292 194.947 284.913 188.824Z" stroke="url(#paint92_linear_106_147)" stroke-width="3"/>
<path opacity="0.94" fill-rule="evenodd" clip-rule="evenodd" d="M287.446 189.229C240.068 178.814 186.412 136.015 147.553 165.044C109.861 193.2 143.892 255.808 136.211 302.204C129.075 345.316 94.1996 383.557 104.343 426.06C115.173 471.44 149.662 509.897 190.965 531.633C231.461 552.945 280.485 554.421 324.516 541.927C364.309 530.636 389.537 495.396 419.42 466.808C448.183 439.291 492.415 418.161 495.365 378.478C498.321 338.723 457.084 311.679 433.334 279.654C415.447 255.534 399.526 230.646 373.997 214.823C347.788 198.578 317.568 195.851 287.446 189.229Z" stroke="url(#paint93_linear_106_147)" stroke-width="3"/>
<path opacity="0.95" fill-rule="evenodd" clip-rule="evenodd" d="M289.994 189.711C243.034 178.524 190.389 135.003 151.22 163.213C113.229 190.576 146.003 253.468 137.555 299.504C129.705 342.279 94.3411 379.727 103.696 422.198C113.684 467.543 147.333 506.411 188.052 528.758C227.975 550.668 276.728 552.99 320.756 541.322C360.545 530.778 386.259 496.15 416.488 468.221C445.585 441.339 489.962 421.081 493.587 381.644C497.218 342.136 456.657 314.508 433.582 282.227C416.203 257.915 400.794 232.873 375.667 216.683C349.871 200.062 319.85 196.824 289.994 189.711Z" stroke="url(#paint94_linear_106_147)" stroke-width="3"/>
<path opacity="0.96" fill-rule="evenodd" clip-rule="evenodd" d="M292.554 190.27C246.025 178.322 194.4 134.101 154.939 161.492C116.663 188.06 148.18 251.211 138.976 296.872C130.423 339.301 94.5868 375.949 103.157 418.373C112.308 463.668 145.113 502.929 185.239 525.873C224.581 548.369 273.049 551.526 317.058 540.681C356.83 530.88 383.016 496.87 413.578 469.604C442.995 443.36 487.501 423.973 491.791 384.794C496.09 345.544 456.213 317.347 433.814 284.825C416.945 260.331 402.048 235.144 377.329 218.598C351.951 201.611 322.137 197.866 292.554 190.27Z" stroke="url(#paint95_linear_106_147)" stroke-width="3"/>
<path opacity="0.97" fill-rule="evenodd" clip-rule="evenodd" d="M295.126 190.906C249.039 178.209 198.443 133.31 158.706 159.879C120.162 185.651 150.424 249.036 140.473 294.312C131.227 336.381 94.9354 372.226 102.726 414.588C111.044 459.818 143.001 499.454 182.527 522.982C221.28 546.05 269.447 550.034 313.422 540.007C353.164 530.946 379.808 497.559 410.688 470.959C440.413 445.356 485.03 426.839 489.979 387.928C494.938 348.947 455.751 320.197 434.031 287.447C417.671 262.781 403.287 237.46 378.98 220.566C354.026 203.222 324.427 198.979 295.126 190.906Z" stroke="url(#paint96_linear_106_147)" stroke-width="3"/>
<path opacity="0.98" fill-rule="evenodd" clip-rule="evenodd" d="M297.708 191.619C252.075 178.185 202.516 132.63 162.519 158.377C123.723 183.351 152.731 246.947 142.044 291.824C132.115 333.524 95.3851 368.559 102.401 410.846C109.891 455.995 140.998 495.989 179.914 520.087C218.07 543.713 265.924 548.513 309.849 539.301C349.546 530.975 376.635 498.217 407.821 472.286C437.839 447.327 482.551 429.677 488.151 391.046C493.761 352.344 455.272 323.057 434.231 290.092C418.383 265.265 404.511 239.821 380.621 222.589C356.094 204.898 326.72 200.161 297.708 191.619Z" stroke="url(#paint97_linear_106_147)" stroke-width="3"/>
<path opacity="0.99" fill-rule="evenodd" clip-rule="evenodd" d="M300.297 192.411C255.131 178.25 206.615 132.063 166.375 156.986C127.344 181.161 155.099 244.943 143.688 289.41C133.085 330.729 95.9344 364.951 102.18 407.148C108.848 452.202 139.102 492.536 177.401 517.189C214.952 541.36 262.478 546.968 306.339 538.564C345.979 530.969 373.498 498.845 404.975 473.586C435.273 449.273 480.063 432.488 486.305 394.148C492.559 355.737 454.776 325.928 434.414 292.762C419.078 267.784 405.719 242.226 382.25 224.665C358.155 206.636 329.013 201.413 300.297 192.411Z" stroke="url(#paint98_linear_106_147)" stroke-width="3"/>
<path fill-rule="evenodd" clip-rule="evenodd" d="M302.84 193.283C258.177 178.391 210.741 131.537 170.298 155.666C131.071 179.069 157.56 243.089 145.443 287.188C134.183 328.164 96.651 361.609 102.128 403.753C107.977 448.75 137.357 489.456 175.009 514.681C211.926 539.412 259.083 545.825 302.84 538.216C342.384 531.339 370.303 499.817 402.038 475.202C432.585 451.509 477.411 435.566 484.283 397.482C491.167 359.327 454.117 328.975 434.447 295.582C419.633 270.433 406.794 244.74 383.763 226.839C360.12 208.46 331.235 202.75 302.84 193.283Z" stroke="url(#paint99_linear_106_147)" stroke-width="3"/>
<defs>
<linearGradient id="paint0_linear_106_147" x1="209.716" y1="374.354" x2="784.396" y2="283.334" gradientUnits="userSpaceOnUse">
<stop stop-color="#91FFF8"/>
<stop offset="1" stop-color="#0094FF"/>
</linearGradient>
<linearGradient id="paint1_linear_106_147" x1="206.478" y1="371.226" x2="780.759" y2="290.516" gradientUnits="userSpaceOnUse">
<stop stop-color="#E9DEEC"/>
<stop offset="0.0001" stop-color="white"/>
<stop offset="0.9999" stop-color="#3F70FA"/>
<stop offset="1" stop-color="#0047FF"/>
</linearGradient>
<linearGradient id="paint2_linear_106_147" x1="203.329" y1="368.057" x2="777.026" y2="297.616" gradientUnits="userSpaceOnUse">
<stop stop-color="#91FFF8"/>
<stop offset="1" stop-color="#0094FF"/>
</linearGradient>
<linearGradient id="paint3_linear_106_147" x1="200.268" y1="364.849" x2="773.199" y2="304.631" gradientUnits="userSpaceOnUse">
<stop stop-color="#91FFF8"/>
<stop offset="1" stop-color="#0094FF"/>
</linearGradient>
<linearGradient id="paint4_linear_106_147" x1="197.297" y1="361.602" x2="769.28" y2="311.56" gradientUnits="userSpaceOnUse">
<stop stop-color="#91FFF8"/>
<stop offset="1" stop-color="#0094FF"/>
</linearGradient>
<linearGradient id="paint5_linear_106_147" x1="194.417" y1="358.32" x2="765.272" y2="318.402" gradientUnits="userSpaceOnUse">
<stop stop-color="#91FFF8"/>
<stop offset="1" stop-color="#0094FF"/>
</linearGradient>
<linearGradient id="paint6_linear_106_147" x1="191.627" y1="355.004" x2="761.176" y2="325.155" gradientUnits="userSpaceOnUse">
<stop stop-color="#91FFF8"/>
<stop offset="1" stop-color="#0094FF"/>
</linearGradient>
<linearGradient id="paint7_linear_106_147" x1="188.93" y1="351.656" x2="756.995" y2="331.819" gradientUnits="userSpaceOnUse">
<stop stop-color="#91FFF8"/>
<stop offset="1" stop-color="#0094FF"/>
</linearGradient>
<linearGradient id="paint8_linear_106_147" x1="186.324" y1="348.278" x2="752.73" y2="338.391" gradientUnits="userSpaceOnUse">
<stop stop-color="#91FFF8"/>
<stop offset="1" stop-color="#0094FF"/>
</linearGradient>
<linearGradient id="paint9_linear_106_147" x1="183.995" y1="344.798" x2="748.418" y2="344.798" gradientUnits="userSpaceOnUse">
<stop stop-color="#91FFF8"/>
<stop offset="1" stop-color="#0094FF"/>
</linearGradient>
<linearGradient id="paint10_linear_106_147" x1="181.391" y1="341.439" x2="743.96" y2="351.259" gradientUnits="userSpaceOnUse">
<stop stop-color="#91FFF8"/>
<stop offset="1" stop-color="#0094FF"/>
</linearGradient>
<linearGradient id="paint11_linear_106_147" x1="179.064" y1="337.982" x2="739.459" y2="357.552" gradientUnits="userSpaceOnUse">
<stop stop-color="#91FFF8"/>
<stop offset="1" stop-color="#0094FF"/>
</linearGradient>
<linearGradient id="paint12_linear_106_147" x1="176.833" y1="334.503" x2="734.884" y2="363.749" gradientUnits="userSpaceOnUse">
<stop stop-color="#91FFF8"/>
<stop offset="1" stop-color="#0094FF"/>
</linearGradient>
<linearGradient id="paint13_linear_106_147" x1="174.695" y1="331.003" x2="730.236" y2="369.85" gradientUnits="userSpaceOnUse">
<stop stop-color="#91FFF8"/>
<stop offset="1" stop-color="#0094FF"/>
</linearGradient>
<linearGradient id="paint14_linear_106_147" x1="172.652" y1="327.484" x2="725.519" y2="375.854" gradientUnits="userSpaceOnUse">
<stop stop-color="#91FFF8"/>
<stop offset="1" stop-color="#0094FF"/>
</linearGradient>
<linearGradient id="paint15_linear_106_147" x1="170.704" y1="323.949" x2="720.734" y2="381.76" gradientUnits="userSpaceOnUse">
<stop stop-color="#91FFF8"/>
<stop offset="1" stop-color="#0094FF"/>
</linearGradient>
<linearGradient id="paint16_linear_106_147" x1="168.851" y1="320.399" x2="715.884" y2="387.567" gradientUnits="userSpaceOnUse">
<stop stop-color="#91FFF8"/>
<stop offset="1" stop-color="#0094FF"/>
</linearGradient>
<linearGradient id="paint17_linear_106_147" x1="167.093" y1="316.837" x2="710.971" y2="393.274" gradientUnits="userSpaceOnUse">
<stop stop-color="#91FFF8"/>
<stop offset="1" stop-color="#0094FF"/>
</linearGradient>
<linearGradient id="paint18_linear_106_147" x1="165.431" y1="313.264" x2="705.997" y2="398.881" gradientUnits="userSpaceOnUse">
<stop stop-color="#91FFF8"/>
<stop offset="1" stop-color="#0094FF"/>
</linearGradient>
<linearGradient id="paint19_linear_106_147" x1="163.865" y1="309.681" x2="700.965" y2="404.386" gradientUnits="userSpaceOnUse">
<stop stop-color="#91FFF8"/>
<stop offset="1" stop-color="#0094FF"/>
</linearGradient>
<linearGradient id="paint20_linear_106_147" x1="162.395" y1="306.092" x2="695.876" y2="409.791" gradientUnits="userSpaceOnUse">
<stop stop-color="#91FFF8"/>
<stop offset="1" stop-color="#0094FF"/>
</linearGradient>
<linearGradient id="paint21_linear_106_147" x1="161.02" y1="302.498" x2="690.734" y2="415.093" gradientUnits="userSpaceOnUse">
<stop stop-color="#91FFF8"/>
<stop offset="1" stop-color="#0094FF"/>
</linearGradient>
<linearGradient id="paint22_linear_106_147" x1="159.742" y1="298.902" x2="685.54" y2="420.292" gradientUnits="userSpaceOnUse">
<stop stop-color="#91FFF8"/>
<stop offset="1" stop-color="#0094FF"/>
</linearGradient>
<linearGradient id="paint23_linear_106_147" x1="158.559" y1="295.304" x2="680.297" y2="425.388" gradientUnits="userSpaceOnUse">
<stop stop-color="#91FFF8"/>
<stop offset="1" stop-color="#0094FF"/>
</linearGradient>
<linearGradient id="paint24_linear_106_147" x1="157.472" y1="291.707" x2="675.007" y2="430.38" gradientUnits="userSpaceOnUse">
<stop stop-color="#91FFF8"/>
<stop offset="1" stop-color="#0094FF"/>
</linearGradient>
<linearGradient id="paint25_linear_106_147" x1="156.481" y1="288.113" x2="669.672" y2="435.268" gradientUnits="userSpaceOnUse">
<stop stop-color="#91FFF8"/>
<stop offset="1" stop-color="#0094FF"/>
</linearGradient>
<linearGradient id="paint26_linear_106_147" x1="155.585" y1="284.524" x2="664.295" y2="440.052" gradientUnits="userSpaceOnUse">
<stop stop-color="#91FFF8"/>
<stop offset="1" stop-color="#0094FF"/>
</linearGradient>
<linearGradient id="paint27_linear_106_147" x1="154.785" y1="280.942" x2="658.878" y2="444.732" gradientUnits="userSpaceOnUse">
<stop stop-color="#91FFF8"/>
<stop offset="1" stop-color="#0094FF"/>
</linearGradient>
<linearGradient id="paint28_linear_106_147" x1="154.08" y1="277.369" x2="653.423" y2="449.307" gradientUnits="userSpaceOnUse">
<stop stop-color="#91FFF8"/>
<stop offset="1" stop-color="#0094FF"/>
</linearGradient>
<linearGradient id="paint29_linear_106_147" x1="153.469" y1="273.806" x2="647.932" y2="453.776" gradientUnits="userSpaceOnUse">
<stop stop-color="#91FFF8"/>
<stop offset="1" stop-color="#0094FF"/>
</linearGradient>
<linearGradient id="paint30_linear_106_147" x1="152.953" y1="270.256" x2="642.409" y2="458.141" gradientUnits="userSpaceOnUse">
<stop stop-color="#91FFF8"/>
<stop offset="1" stop-color="#0094FF"/>
</linearGradient>
<linearGradient id="paint31_linear_106_147" x1="152.532" y1="266.721" x2="636.855" y2="462.4" gradientUnits="userSpaceOnUse">
<stop stop-color="#91FFF8"/>
<stop offset="1" stop-color="#0094FF"/>
</linearGradient>
<linearGradient id="paint32_linear_106_147" x1="152.204" y1="263.202" x2="631.272" y2="466.555" gradientUnits="userSpaceOnUse">
<stop stop-color="#91FFF8"/>
<stop offset="1" stop-color="#0094FF"/>
</linearGradient>
<linearGradient id="paint33_linear_106_147" x1="151.969" y1="259.702" x2="625.662" y2="470.603" gradientUnits="userSpaceOnUse">
<stop stop-color="#91FFF8"/>
<stop offset="1" stop-color="#0094FF"/>
</linearGradient>
<linearGradient id="paint34_linear_106_147" x1="151.828" y1="256.222" x2="620.029" y2="474.547" gradientUnits="userSpaceOnUse">
<stop stop-color="#91FFF8"/>
<stop offset="1" stop-color="#0094FF"/>
</linearGradient>
<linearGradient id="paint35_linear_106_147" x1="151.779" y1="252.763" x2="614.374" y2="478.386" gradientUnits="userSpaceOnUse">
<stop stop-color="#91FFF8"/>
<stop offset="1" stop-color="#0094FF"/>
</linearGradient>
<linearGradient id="paint36_linear_106_147" x1="151.822" y1="249.329" x2="608.699" y2="482.12" gradientUnits="userSpaceOnUse">
<stop stop-color="#91FFF8"/>
<stop offset="1" stop-color="#0094FF"/>
</linearGradient>
<linearGradient id="paint37_linear_106_147" x1="151.956" y1="245.921" x2="603.007" y2="485.749" gradientUnits="userSpaceOnUse">
<stop stop-color="#91FFF8"/>
<stop offset="1" stop-color="#0094FF"/>
</linearGradient>
<linearGradient id="paint38_linear_106_147" x1="152.181" y1="242.541" x2="597.299" y2="489.274" gradientUnits="userSpaceOnUse">
<stop stop-color="#91FFF8"/>
<stop offset="1" stop-color="#0094FF"/>
</linearGradient>
<linearGradient id="paint39_linear_106_147" x1="152.497" y1="239.19" x2="591.579" y2="492.694" gradientUnits="userSpaceOnUse">
<stop stop-color="#91FFF8"/>
<stop offset="1" stop-color="#0094FF"/>
</linearGradient>
<linearGradient id="paint40_linear_106_147" x1="152.901" y1="235.871" x2="585.848" y2="496.011" gradientUnits="userSpaceOnUse">
<stop stop-color="#91FFF8"/>
<stop offset="1" stop-color="#0094FF"/>
</linearGradient>
<linearGradient id="paint41_linear_106_147" x1="153.395" y1="232.584" x2="580.108" y2="499.224" gradientUnits="userSpaceOnUse">
<stop stop-color="#91FFF8"/>
<stop offset="1" stop-color="#0094FF"/>
</linearGradient>
<linearGradient id="paint42_linear_106_147" x1="153.976" y1="229.333" x2="574.361" y2="502.335" gradientUnits="userSpaceOnUse">
<stop stop-color="#91FFF8"/>
<stop offset="1" stop-color="#0094FF"/>
</linearGradient>
<linearGradient id="paint43_linear_106_147" x1="154.645" y1="226.119" x2="568.611" y2="505.342" gradientUnits="userSpaceOnUse">
<stop stop-color="#91FFF8"/>
<stop offset="1" stop-color="#0094FF"/>
</linearGradient>
<linearGradient id="paint44_linear_106_147" x1="155.4" y1="222.943" x2="562.858" y2="508.248" gradientUnits="userSpaceOnUse">
<stop stop-color="#91FFF8"/>
<stop offset="1" stop-color="#0094FF"/>
</linearGradient>
<linearGradient id="paint45_linear_106_147" x1="156.241" y1="219.807" x2="557.105" y2="511.052" gradientUnits="userSpaceOnUse">
<stop stop-color="#91FFF8"/>
<stop offset="1" stop-color="#0094FF"/>
</linearGradient>
<linearGradient id="paint46_linear_106_147" x1="157.166" y1="216.713" x2="551.354" y2="513.755" gradientUnits="userSpaceOnUse">
<stop stop-color="#91FFF8"/>
<stop offset="1" stop-color="#0094FF"/>
</linearGradient>
<linearGradient id="paint47_linear_106_147" x1="158.175" y1="213.664" x2="545.606" y2="516.358" gradientUnits="userSpaceOnUse">
<stop stop-color="#91FFF8"/>
<stop offset="1" stop-color="#0094FF"/>
</linearGradient>
<linearGradient id="paint48_linear_106_147" x1="159.267" y1="210.659" x2="539.865" y2="518.862" gradientUnits="userSpaceOnUse">
<stop stop-color="#91FFF8"/>
<stop offset="1" stop-color="#0094FF"/>
</linearGradient>
<linearGradient id="paint49_linear_106_147" x1="160.44" y1="207.701" x2="534.132" y2="521.266" gradientUnits="userSpaceOnUse">
<stop stop-color="#91FFF8"/>
<stop offset="1" stop-color="#0094FF"/>
</linearGradient>
<linearGradient id="paint50_linear_106_147" x1="161.694" y1="204.793" x2="528.409" y2="523.573" gradientUnits="userSpaceOnUse">
<stop stop-color="#91FFF8"/>
<stop offset="1" stop-color="#0094FF"/>
</linearGradient>
<linearGradient id="paint51_linear_106_147" x1="163.028" y1="201.934" x2="522.698" y2="525.782" gradientUnits="userSpaceOnUse">
<stop stop-color="#91FFF8"/>
<stop offset="1" stop-color="#0094FF"/>
</linearGradient>
<linearGradient id="paint52_linear_106_147" x1="164.441" y1="199.128" x2="517" y2="527.894" gradientUnits="userSpaceOnUse">
<stop stop-color="#91FFF8"/>
<stop offset="1" stop-color="#0094FF"/>
</linearGradient>
<linearGradient id="paint53_linear_106_147" x1="165.931" y1="196.375" x2="511.319" y2="529.911" gradientUnits="userSpaceOnUse">
<stop stop-color="#91FFF8"/>
<stop offset="1" stop-color="#0094FF"/>
</linearGradient>
<linearGradient id="paint54_linear_106_147" x1="167.498" y1="193.676" x2="505.655" y2="531.833" gradientUnits="userSpaceOnUse">
<stop stop-color="#91FFF8"/>
<stop offset="1" stop-color="#0094FF"/>
</linearGradient>
<linearGradient id="paint55_linear_106_147" x1="169.14" y1="191.035" x2="500.01" y2="533.662" gradientUnits="userSpaceOnUse">
<stop stop-color="#91FFF8"/>
<stop offset="1" stop-color="#0094FF"/>
</linearGradient>
<linearGradient id="paint56_linear_106_147" x1="170.855" y1="188.452" x2="494.387" y2="535.397" gradientUnits="userSpaceOnUse">
<stop stop-color="#91FFF8"/>
<stop offset="1" stop-color="#0094FF"/>
</linearGradient>
<linearGradient id="paint57_linear_106_147" x1="172.644" y1="185.928" x2="488.788" y2="537.041" gradientUnits="userSpaceOnUse">
<stop stop-color="#91FFF8"/>
<stop offset="1" stop-color="#0094FF"/>
</linearGradient>
<linearGradient id="paint58_linear_106_147" x1="174.504" y1="183.465" x2="483.213" y2="538.594" gradientUnits="userSpaceOnUse">
<stop stop-color="#91FFF8"/>
<stop offset="1" stop-color="#0094FF"/>
</linearGradient>
<linearGradient id="paint59_linear_106_147" x1="176.434" y1="181.065" x2="477.665" y2="540.058" gradientUnits="userSpaceOnUse">
<stop stop-color="#91FFF8"/>
<stop offset="1" stop-color="#0094FF"/>
</linearGradient>
<linearGradient id="paint60_linear_106_147" x1="178.433" y1="178.729" x2="472.145" y2="541.433" gradientUnits="userSpaceOnUse">
<stop stop-color="#91FFF8"/>
<stop offset="1" stop-color="#0094FF"/>
</linearGradient>
<linearGradient id="paint61_linear_106_147" x1="180.499" y1="176.457" x2="466.655" y2="542.72" gradientUnits="userSpaceOnUse">
<stop stop-color="#91FFF8"/>
<stop offset="1" stop-color="#0094FF"/>
</linearGradient>
<linearGradient id="paint62_linear_106_147" x1="182.632" y1="174.253" x2="461.197" y2="543.921" gradientUnits="userSpaceOnUse">
<stop stop-color="#91FFF8"/>
<stop offset="1" stop-color="#0094FF"/>
</linearGradient>
<linearGradient id="paint63_linear_106_147" x1="184.829" y1="172.116" x2="455.772" y2="545.038" gradientUnits="userSpaceOnUse">
<stop stop-color="#91FFF8"/>
<stop offset="1" stop-color="#0094FF"/>
</linearGradient>
<linearGradient id="paint64_linear_106_147" x1="187.089" y1="170.049" x2="450.383" y2="546.07" gradientUnits="userSpaceOnUse">
<stop stop-color="#91FFF8"/>
<stop offset="1" stop-color="#0094FF"/>
</linearGradient>
<linearGradient id="paint65_linear_106_147" x1="189.411" y1="168.052" x2="445.029" y2="547.02" gradientUnits="userSpaceOnUse">
<stop stop-color="#91FFF8"/>
<stop offset="1" stop-color="#0094FF"/>
</linearGradient>
<linearGradient id="paint66_linear_106_147" x1="191.794" y1="166.126" x2="439.714" y2="547.889" gradientUnits="userSpaceOnUse">
<stop stop-color="#91FFF8"/>
<stop offset="1" stop-color="#0094FF"/>
</linearGradient>
<linearGradient id="paint67_linear_106_147" x1="194.236" y1="164.274" x2="434.438" y2="548.678" gradientUnits="userSpaceOnUse">
<stop stop-color="#91FFF8"/>
<stop offset="1" stop-color="#0094FF"/>
</linearGradient>
<linearGradient id="paint68_linear_106_147" x1="196.735" y1="162.495" x2="429.203" y2="549.389" gradientUnits="userSpaceOnUse">
<stop stop-color="#91FFF8"/>
<stop offset="1" stop-color="#0094FF"/>
</linearGradient>
<linearGradient id="paint69_linear_106_147" x1="199.289" y1="160.792" x2="424.011" y2="550.022" gradientUnits="userSpaceOnUse">
<stop stop-color="#91FFF8"/>
<stop offset="1" stop-color="#0094FF"/>
</linearGradient>
<linearGradient id="paint70_linear_106_147" x1="201.898" y1="159.165" x2="418.862" y2="550.579" gradientUnits="userSpaceOnUse">
<stop stop-color="#91FFF8"/>
<stop offset="1" stop-color="#0094FF"/>
</linearGradient>
<linearGradient id="paint71_linear_106_147" x1="204.559" y1="157.616" x2="413.758" y2="551.062" gradientUnits="userSpaceOnUse">
<stop stop-color="#91FFF8"/>
<stop offset="1" stop-color="#0094FF"/>
</linearGradient>
<linearGradient id="paint72_linear_106_147" x1="207.271" y1="156.145" x2="408.701" y2="551.473" gradientUnits="userSpaceOnUse">
<stop stop-color="#91FFF8"/>
<stop offset="1" stop-color="#0094FF"/>
</linearGradient>
<linearGradient id="paint73_linear_106_147" x1="210.033" y1="154.753" x2="403.692" y2="551.812" gradientUnits="userSpaceOnUse">
<stop stop-color="#91FFF8"/>
<stop offset="1" stop-color="#0094FF"/>
</linearGradient>
<linearGradient id="paint74_linear_106_147" x1="212.842" y1="153.442" x2="398.731" y2="552.081" gradientUnits="userSpaceOnUse">
<stop stop-color="#91FFF8"/>
<stop offset="1" stop-color="#0094FF"/>
</linearGradient>
<linearGradient id="paint75_linear_106_147" x1="215.698" y1="152.212" x2="393.82" y2="552.281" gradientUnits="userSpaceOnUse">
<stop stop-color="#91FFF8"/>
<stop offset="1" stop-color="#0094FF"/>
</linearGradient>
<linearGradient id="paint76_linear_106_147" x1="218.597" y1="151.064" x2="388.961" y2="552.415" gradientUnits="userSpaceOnUse">
<stop stop-color="#91FFF8"/>
<stop offset="1" stop-color="#0094FF"/>
</linearGradient>
<linearGradient id="paint77_linear_106_147" x1="221.54" y1="150" x2="384.154" y2="552.484" gradientUnits="userSpaceOnUse">
<stop stop-color="#91FFF8"/>
<stop offset="1" stop-color="#0094FF"/>
</linearGradient>
<linearGradient id="paint78_linear_106_147" x1="224.523" y1="149.019" x2="379.4" y2="552.488" gradientUnits="userSpaceOnUse">
<stop stop-color="#91FFF8"/>
<stop offset="1" stop-color="#0094FF"/>
</linearGradient>
<linearGradient id="paint79_linear_106_147" x1="227.545" y1="148.124" x2="374.701" y2="552.431" gradientUnits="userSpaceOnUse">
<stop stop-color="#91FFF8"/>
<stop offset="1" stop-color="#0094FF"/>
</linearGradient>
<linearGradient id="paint80_linear_106_147" x1="230.604" y1="147.314" x2="370.057" y2="552.313" gradientUnits="userSpaceOnUse">
<stop stop-color="#91FFF8"/>
<stop offset="1" stop-color="#0094FF"/>
</linearGradient>
<linearGradient id="paint81_linear_106_147" x1="233.699" y1="146.59" x2="365.47" y2="552.137" gradientUnits="userSpaceOnUse">
<stop stop-color="#91FFF8"/>
<stop offset="1" stop-color="#0094FF"/>
</linearGradient>
<linearGradient id="paint82_linear_106_147" x1="236.828" y1="145.953" x2="360.94" y2="551.903" gradientUnits="userSpaceOnUse">
<stop stop-color="#91FFF8"/>
<stop offset="1" stop-color="#0094FF"/>
</linearGradient>
<linearGradient id="paint83_linear_106_147" x1="239.989" y1="145.404" x2="356.468" y2="551.613" gradientUnits="userSpaceOnUse">
<stop stop-color="#91FFF8"/>
<stop offset="1" stop-color="#0094FF"/>
</linearGradient>
<linearGradient id="paint84_linear_106_147" x1="243.18" y1="144.942" x2="352.055" y2="551.27" gradientUnits="userSpaceOnUse">
<stop stop-color="#91FFF8"/>
<stop offset="1" stop-color="#0094FF"/>
</linearGradient>
<linearGradient id="paint85_linear_106_147" x1="246.4" y1="144.57" x2="347.703" y2="550.874" gradientUnits="userSpaceOnUse">
<stop stop-color="#91FFF8"/>
<stop offset="1" stop-color="#0094FF"/>
</linearGradient>
<linearGradient id="paint86_linear_106_147" x1="249.646" y1="144.288" x2="343.411" y2="550.428" gradientUnits="userSpaceOnUse">
<stop stop-color="#91FFF8"/>
<stop offset="1" stop-color="#0094FF"/>
</linearGradient>
<linearGradient id="paint87_linear_106_147" x1="252.916" y1="144.095" x2="339.179" y2="549.933" gradientUnits="userSpaceOnUse">
<stop stop-color="#91FFF8"/>
<stop offset="1" stop-color="#0094FF"/>
</linearGradient>
<linearGradient id="paint88_linear_106_147" x1="256.21" y1="143.993" x2="335.011" y2="549.391" gradientUnits="userSpaceOnUse">
<stop stop-color="#91FFF8"/>
<stop offset="1" stop-color="#0094FF"/>
</linearGradient>
<linearGradient id="paint89_linear_106_147" x1="259.524" y1="143.981" x2="330.905" y2="548.803" gradientUnits="userSpaceOnUse">
<stop stop-color="#91FFF8"/>
<stop offset="1" stop-color="#0094FF"/>
</linearGradient>
<linearGradient id="paint90_linear_106_147" x1="262.857" y1="144.061" x2="326.862" y2="548.172" gradientUnits="userSpaceOnUse">
<stop stop-color="#91FFF8"/>
<stop offset="1" stop-color="#0094FF"/>
</linearGradient>
<linearGradient id="paint91_linear_106_147" x1="266.208" y1="144.232" x2="322.883" y2="547.498" gradientUnits="userSpaceOnUse">
<stop stop-color="#91FFF8"/>
<stop offset="1" stop-color="#0094FF"/>
</linearGradient>
<linearGradient id="paint92_linear_106_147" x1="269.574" y1="144.496" x2="318.969" y2="546.785" gradientUnits="userSpaceOnUse">
<stop stop-color="#91FFF8"/>
<stop offset="1" stop-color="#0094FF"/>
</linearGradient>
<linearGradient id="paint93_linear_106_147" x1="272.953" y1="144.851" x2="315.119" y2="546.033" gradientUnits="userSpaceOnUse">
<stop stop-color="#91FFF8"/>
<stop offset="1" stop-color="#0094FF"/>
</linearGradient>
<linearGradient id="paint94_linear_106_147" x1="276.344" y1="145.299" x2="311.334" y2="545.244" gradientUnits="userSpaceOnUse">
<stop stop-color="#91FFF8"/>
<stop offset="1" stop-color="#0094FF"/>
</linearGradient>
<linearGradient id="paint95_linear_106_147" x1="279.744" y1="145.84" x2="307.615" y2="544.42" gradientUnits="userSpaceOnUse">
<stop stop-color="#91FFF8"/>
<stop offset="1" stop-color="#0094FF"/>
</linearGradient>
<linearGradient id="paint96_linear_106_147" x1="283.152" y1="146.473" x2="303.962" y2="543.564" gradientUnits="userSpaceOnUse">
<stop stop-color="#91FFF8"/>
<stop offset="1" stop-color="#0094FF"/>
</linearGradient>
<linearGradient id="paint97_linear_106_147" x1="286.566" y1="147.2" x2="300.376" y2="542.675" gradientUnits="userSpaceOnUse">
<stop stop-color="#91FFF8"/>
<stop offset="1" stop-color="#0094FF"/>
</linearGradient>
<linearGradient id="paint98_linear_106_147" x1="289.983" y1="148.02" x2="296.856" y2="541.757" gradientUnits="userSpaceOnUse">
<stop stop-color="#91FFF8"/>
<stop offset="1" stop-color="#0094FF"/>
</linearGradient>
<linearGradient id="paint99_linear_106_147" x1="293.355" y1="148.883" x2="293.355" y2="541.232" gradientUnits="userSpaceOnUse">
<stop stop-color="#91FFF8"/>
<stop offset="1" stop-color="#0094FF"/>
</linearGradient>
</defs>
</svg>
